<svg width="187" height="192" viewBox="0 0 187 192" fill="none" xmlns="http://www.w3.org/2000/svg">
<path d="M93.5 68.616L71.7729 46.308L93.5 24L115.377 46.308L93.5 68.616ZM15.7333 155.076V127.076C15.7333 123.876 16.7599 121.127 18.813 118.83C20.8648 116.533 23.3841 115.281 26.3709 115.076H48.8927C50.9899 115.076 52.9827 115.589 54.8708 116.616C56.759 117.641 58.3174 119.133 59.5458 121.092C63.5118 126.805 68.4543 131.231 74.3734 134.37C80.2912 137.507 86.6667 139.076 93.5 139.076C100.363 139.076 106.779 137.507 112.747 134.37C118.716 131.231 123.668 126.805 127.604 121.092C128.892 119.133 130.473 117.641 132.345 116.616C134.219 115.589 136.14 115.076 138.107 115.076H160.629C163.646 115.281 166.198 116.533 168.284 118.83C170.373 121.127 171.417 123.876 171.417 127.076V155.076H124.667V135.646C120.321 139.287 115.494 142.103 110.184 144.092C104.875 146.081 99.3139 147.076 93.5 147.076C87.816 147.076 82.3371 146.099 77.0635 144.146C71.7885 142.193 66.9285 139.395 62.4833 135.754V155.076H15.7333ZM35.6624 100.924C30.368 100.924 25.7975 98.9493 21.9511 95C18.1059 91.0507 16.1833 86.3587 16.1833 80.924C16.1833 75.3547 18.1059 70.6287 21.9511 66.746C25.7975 62.8647 30.368 60.924 35.6624 60.924C41.0867 60.924 45.689 62.8647 49.4693 66.746C53.2508 70.6287 55.1416 75.3547 55.1416 80.924C55.1416 86.3587 53.2508 91.0507 49.4693 95C45.689 98.9493 41.0867 100.924 35.6624 100.924ZM151.338 100.924C146.043 100.924 141.473 98.9493 137.628 95C133.782 91.0507 131.858 86.3587 131.858 80.924C131.858 75.3547 133.782 70.6287 137.628 66.746C141.473 62.8647 146.043 60.924 151.338 60.924C156.762 60.924 161.365 62.8647 165.146 66.746C168.927 70.6287 170.817 75.3547 170.817 80.924C170.817 86.3587 168.927 91.0507 165.146 95C161.365 98.9493 156.762 100.924 151.338 100.924Z" fill="#2329A8"/>
</svg>
