<svg width="164" height="158" viewBox="0 0 164 158" fill="none" xmlns="http://www.w3.org/2000/svg">
<path d="M59.7855 157.078C53.8118 157.078 48.5804 155.221 44.0911 151.508C39.6005 147.796 36.5059 143.037 34.8073 137.232C33.2295 139.929 31.0498 141.993 28.2682 143.424C25.4852 144.855 22.5556 145.57 19.4792 145.57C14.0549 145.57 9.45259 143.621 5.67233 139.724C1.89078 135.827 0 131.109 0 125.57C0 120.657 1.66807 116.183 5.0042 112.148C8.34033 108.112 12.5511 106.068 17.6364 106.016C15.0184 103.555 12.9478 100.593 11.4245 97.132C9.90126 93.6707 9.13962 90.068 9.13962 86.324C9.13962 81.9133 10.196 77.7593 12.3089 73.862C14.4217 69.9647 17.3813 66.7547 21.1875 64.232C21.5368 65.4013 22.0141 66.66 22.6192 68.008C23.2231 69.3573 23.8399 70.5707 24.4697 71.648C22.0517 73.524 20.2233 75.752 18.9844 78.332C17.7455 80.9107 17.1261 83.6413 17.1261 86.524C17.1261 94.8107 20.1129 100.154 26.0865 102.554C32.0601 104.954 38.209 106.79 44.5333 108.062L46.2864 111.232C44.8579 115.499 43.6989 119.106 42.8094 122.054C41.9198 125.003 41.475 127.729 41.475 130.232C41.475 135.257 43.2457 139.629 46.787 143.348C50.3283 147.065 54.6111 148.924 59.6355 148.924C65.1701 148.924 69.7107 146.785 73.2572 142.508C76.8025 138.232 79.7139 133.155 81.9917 127.278C84.2695 121.401 86.0356 115.355 87.29 109.14C88.5432 102.924 89.5944 97.842 90.4437 93.894L98.1458 96.094C97.077 101.375 95.7979 107.524 94.3084 114.54C92.8202 121.555 90.7002 128.203 87.9484 134.486C85.1967 140.767 81.5956 146.103 77.1453 150.494C72.695 154.883 66.9083 157.078 59.7855 157.078ZM19.4792 137.57C22.6854 137.57 25.4352 136.393 27.7286 134.04C30.0206 131.685 31.1667 128.862 31.1667 125.57C31.1667 122.278 30.0206 119.455 27.7286 117.1C25.4352 114.747 22.6854 113.57 19.4792 113.57C16.2729 113.57 13.5231 114.747 11.2297 117.1C8.93769 119.455 7.79167 122.278 7.79167 125.57C7.79167 128.862 8.93769 131.685 11.2297 134.04C13.5231 136.393 16.2729 137.57 19.4792 137.57ZM66.8583 104.586C61.5847 99.734 56.7623 95.198 52.3912 90.978C48.0213 86.758 44.258 82.6193 41.101 78.562C37.9441 74.506 35.4995 70.45 33.7671 66.394C32.0335 62.3367 31.1667 58.1133 31.1667 53.724C31.1667 46.1853 33.6814 39.834 38.7109 34.67C43.7405 29.506 49.9264 26.924 57.2687 26.924C58.6868 26.924 59.9653 27.0087 61.1042 27.178C62.2431 27.3473 63.3222 27.586 64.3416 27.894C63.7222 26.6633 63.2326 25.4067 62.8729 24.124C62.5132 22.8413 62.3333 21.4667 62.3333 20C62.3333 14.4627 64.2313 9.74466 68.0271 5.846C71.8229 1.94866 76.4181 0 81.8125 0C87.2069 0 91.8021 1.94866 95.5979 5.846C99.3937 9.74466 101.292 14.4627 101.292 20C101.292 21.4667 101.112 22.8333 100.752 24.1C100.392 25.3667 99.9028 26.616 99.2834 27.848C100.303 27.54 101.382 27.3087 102.521 27.154C103.66 27.0007 104.938 26.924 106.356 26.924C112.249 26.924 117.399 28.6447 121.805 32.086C126.21 35.5273 129.232 39.9193 130.871 45.262C129.632 45.0673 128.251 44.97 126.728 44.97C125.204 44.97 123.808 45.052 122.54 45.216C121.131 42.1493 119 39.6673 116.148 37.77C113.297 35.8727 110.033 34.924 106.356 34.924C101.511 34.924 97.6478 36.214 94.7661 38.794C91.8845 41.3727 88.1361 45.416 83.5208 50.924H79.9094C75.1643 45.252 71.3509 41.1673 68.4693 38.67C65.5877 36.1727 61.8541 34.924 57.2687 34.924C52.0146 34.924 47.6493 36.7087 44.1729 40.278C40.6965 43.8473 38.9583 48.3293 38.9583 53.724C38.9583 56.7907 39.7278 59.9827 41.2666 63.3C42.8042 66.6187 45.0241 70.1113 47.9265 73.778C50.8276 77.4447 54.3287 81.3447 58.4297 85.478C62.5307 89.6113 67.1934 94.078 72.4177 98.878L66.8583 104.586ZM90.0619 28.47C92.354 26.1167 93.5 23.2933 93.5 20C93.5 16.708 92.354 13.8853 90.0619 11.532C87.7686 9.17733 85.0188 8 81.8125 8C78.6062 8 75.8564 9.17733 73.5631 11.532C71.271 13.8853 70.125 16.708 70.125 20C70.125 23.2933 71.271 26.1167 73.5631 28.47C75.8564 30.8233 78.6062 32 81.8125 32C85.0188 32 87.7686 30.8233 90.0619 28.47ZM103.345 157.232C101.486 157.232 99.6606 157.037 97.8672 156.648C96.0751 156.257 94.3298 155.606 92.6312 154.694C93.3597 153.75 94.0889 152.627 94.8187 151.324C95.5473 150.021 96.1966 148.816 96.7667 147.708C97.8951 148.232 99.049 148.591 100.228 148.786C101.407 148.981 102.561 149.078 103.69 149.078C108.744 149.078 113.066 147.219 116.657 143.5C120.249 139.783 122.045 135.345 122.045 130.186C122.045 127.653 121.6 124.945 120.71 122.062C119.822 119.181 118.664 115.607 117.235 111.34L119.138 108.17C125.591 106.898 131.772 105.037 137.681 102.586C143.589 100.134 146.544 94.7647 146.544 86.478C146.544 80.0167 144.328 75.2267 139.897 72.108C135.468 68.9907 130.481 67.432 124.935 67.432C119.681 67.432 113.568 68.3447 106.596 70.17C99.6236 71.9953 91.567 74.472 82.4261 77.6L80.2834 69.694C89.2139 66.77 97.2406 64.2773 104.364 62.216C111.486 60.1547 118.059 59.124 124.082 59.124C131.944 59.124 138.951 61.4987 145.104 66.248C151.258 70.996 154.335 77.7393 154.335 86.478C154.335 90.222 153.598 93.7473 152.124 97.054C150.652 100.362 148.607 103.349 145.989 106.016C151.074 106.171 155.285 108.215 158.621 112.148C161.957 116.081 163.625 120.555 163.625 125.57C163.625 131.006 161.734 135.699 157.953 139.648C154.172 143.596 149.57 145.57 144.146 145.57C141.069 145.57 138.14 144.855 135.357 143.424C132.575 141.993 130.395 139.929 128.818 137.232C127.119 143.037 123.975 147.822 119.384 151.586C114.795 155.35 109.448 157.232 103.345 157.232ZM152.493 134.04C154.72 131.685 155.833 128.862 155.833 125.57C155.833 122.278 154.687 119.421 152.395 117C150.102 114.58 147.352 113.37 144.146 113.37C140.94 113.37 138.19 114.547 135.896 116.9C133.604 119.255 132.458 122.078 132.458 125.37C132.458 128.662 133.637 131.519 135.994 133.94C138.352 136.36 141.134 137.57 144.341 137.57C147.547 137.57 150.264 136.393 152.493 134.04Z" fill="#2329A8"/>
</svg>
