<svg width="187" height="192" viewBox="0 0 187 192" fill="none" xmlns="http://www.w3.org/2000/svg">
<path d="M39.7083 180C34.3139 180 29.7187 178.051 25.9229 174.154C22.127 170.257 20.2291 165.539 20.2291 160C20.2291 154.461 22.127 149.743 25.9229 145.846C29.7187 141.949 34.3139 140 39.7083 140C43.4132 140 46.7643 140.961 49.7615 142.884C52.7587 144.808 55.1111 147.426 56.8188 150.738C65.9792 145.446 73.4611 138.354 79.2646 129.462C85.0694 120.57 88.7055 110.749 90.173 100H58.8271C57.8687 104.697 55.6013 108.539 52.025 111.524C48.4486 114.508 44.343 116 39.7083 116C34.3139 116 29.7187 114.051 25.9229 110.154C22.127 106.257 20.2291 101.539 20.2291 96C20.2291 90.4613 22.127 85.7433 25.9229 81.846C29.7187 77.9487 34.3139 76 39.7083 76C44.343 76 48.4486 77.492 52.025 80.476C55.6013 83.4613 57.8687 87.3027 58.8271 92H90.173C88.7055 81.2507 85.0694 71.4813 79.2646 62.692C73.4611 53.9027 65.9792 46.7593 56.8188 41.262C55.1111 44.574 52.7587 47.192 49.7615 49.116C46.7643 51.0387 43.4132 52 39.7083 52C34.3139 52 29.7187 50.0513 25.9229 46.154C22.127 42.2567 20.2291 37.5387 20.2291 32C20.2291 26.4613 22.127 21.7433 25.9229 17.846C29.7187 13.9487 34.3139 12 39.7083 12C45.4014 12 50.1809 14.164 54.0469 18.492C57.9129 22.82 59.6264 28.01 59.1875 34.062C70.1049 39.662 78.9549 47.5747 85.7376 57.8C92.5202 68.0253 96.6258 79.4253 98.0542 92H151.848L135.485 75.2L141 69.538L166.771 96L141 122.462L135.485 116.8L151.848 100H98.0542C96.6258 112.575 92.5351 123.983 85.7824 134.224C79.0296 144.464 70.1646 152.369 59.1875 157.938C59.6264 163.99 57.9129 169.18 54.0469 173.508C50.1809 177.836 45.4014 180 39.7083 180Z" fill="#2329A8"/>
</svg>
