<svg width="187" height="192" viewBox="0 0 187 192" fill="none" xmlns="http://www.w3.org/2000/svg">
<path d="M153.796 119.908L148.012 113.97C153.426 108.503 157.681 102.169 160.777 94.968C163.874 87.7667 165.423 80.1153 165.423 72.014C165.423 63.9127 163.874 56.272 160.777 49.092C157.681 41.9133 153.426 35.5907 148.012 30.124L153.796 24.092C159.876 30.1933 164.707 37.388 168.29 45.676C171.873 53.964 173.665 62.748 173.665 72.028C173.665 81.3067 171.871 90.0707 168.284 98.32C164.699 106.568 159.869 113.764 153.796 119.908ZM127.963 93.384L122.09 87.354C124.127 85.2927 125.735 82.9567 126.915 80.346C128.094 77.7353 128.683 74.9533 128.683 72C128.683 68.8413 128.094 66.008 126.915 63.5C125.735 60.992 124.127 58.7073 122.09 56.646L127.963 50.616C130.719 53.3547 132.917 56.5213 134.556 60.116C136.194 63.7107 137.013 67.672 137.013 72C137.013 76.1227 136.194 80.0327 134.556 83.73C132.917 87.4273 130.719 90.6453 127.963 93.384ZM67.8771 96C61.449 96 55.9461 93.6613 51.3685 88.984C46.7909 84.308 44.5021 78.6467 44.5021 72C44.5021 65.3533 46.7799 59.692 51.3354 55.016C55.8909 50.3387 61.4048 48 67.8771 48C74.3507 48 79.8646 50.3387 84.4188 55.016C88.9743 59.692 91.2521 65.3533 91.2521 72C91.2521 78.6467 88.9633 84.308 84.3857 88.984C79.8081 93.6613 74.3052 96 67.8771 96ZM13.3354 153.846V140.676C13.3354 136.995 14.2393 133.811 16.0469 131.124C17.8559 128.436 20.4083 126.297 23.7042 124.708C30.0271 121.549 37.0448 118.949 44.7573 116.908C52.4684 114.867 60.1751 113.846 67.8771 113.846C75.5792 113.846 83.2858 114.867 90.9969 116.908C98.7094 118.949 105.727 121.549 112.05 124.708C115.347 126.297 117.9 128.436 119.707 131.124C121.515 133.811 122.419 136.995 122.419 140.676V153.846H13.3354ZM21.1271 145.846H114.627V140.676C114.627 138.492 114.021 136.697 112.808 135.292C111.594 133.887 110.102 132.697 108.333 131.724C103.46 129.119 97.3543 126.821 90.0171 124.83C82.68 122.841 75.3 121.846 67.8771 121.846C60.4556 121.846 53.0762 122.841 45.739 124.83C38.4019 126.821 32.2958 129.119 27.4208 131.724C25.6521 132.697 24.1613 133.887 22.9484 135.292C21.7342 136.697 21.1271 138.492 21.1271 140.676V145.846ZM78.8828 83.3C81.9346 80.1667 83.4604 76.4 83.4604 72C83.4604 67.6 81.9346 63.8333 78.8828 60.7C75.8311 57.5667 72.1625 56 67.8771 56C63.5917 56 59.9231 57.5667 56.8714 60.7C53.8196 63.8333 52.2938 67.6 52.2938 72C52.2938 76.4 53.8196 80.1667 56.8714 83.3C59.9231 86.4333 63.5917 88 67.8771 88C72.1625 88 75.8311 86.4333 78.8828 83.3Z" fill="#2329A8"/>
</svg>
