<svg width="187" height="192" viewBox="0 0 187 192" fill="none" xmlns="http://www.w3.org/2000/svg">
<path d="M91.1781 159.538C92.1962 159.538 93.2396 159.302 94.3084 158.83C95.3771 158.359 96.2414 157.785 96.9011 157.108L157.647 94.738C159.604 92.7287 161.115 90.6727 162.18 88.57C163.243 86.4673 163.775 84.1593 163.775 81.646C163.775 79.102 163.243 76.6327 162.18 74.238C161.115 71.8433 159.604 69.656 157.647 67.676L128.428 37.676C126.5 35.6667 124.519 34.1927 122.487 33.254C120.453 32.3153 118.198 31.846 115.722 31.846C113.274 31.846 111.001 32.3153 108.904 33.254C106.806 34.1927 104.828 35.6667 102.971 37.676L96.1823 44.646L110.597 59.492C112.145 61.0507 113.299 62.8253 114.058 64.816C114.817 66.8053 115.196 68.8253 115.196 70.876C115.196 75.0413 113.87 78.4853 111.218 81.208C108.566 83.9307 105.213 85.292 101.157 85.292C99.1587 85.292 97.2082 84.9793 95.3057 84.354C93.4033 83.7287 91.6923 82.636 90.173 81.076L75.2636 65.816L41.625 100.354C40.8368 101.165 40.2453 102.085 39.8505 103.116C39.4557 104.147 39.2583 105.185 39.2583 106.23C39.2583 108.118 39.8479 109.675 41.027 110.9C42.2049 112.125 43.7132 112.738 45.552 112.738C46.5701 112.738 47.6136 112.502 48.6823 112.03C49.7511 111.559 50.6153 110.985 51.275 110.308L75.9687 84.954L81.4833 90.616L56.8344 115.97C56.0448 116.779 55.4526 117.699 55.0579 118.73C54.6644 119.761 54.4676 120.799 54.4676 121.846C54.4676 123.631 55.0819 125.155 56.3104 126.416C57.5389 127.677 59.0219 128.308 60.7594 128.308C61.7788 128.308 62.8229 128.072 63.8917 127.6C64.9604 127.128 65.8246 126.553 66.4843 125.876L92.976 98.724L98.4906 104.384L72.0437 131.584C71.3541 132.261 70.7873 133.149 70.3432 134.246C69.8977 135.343 69.675 136.415 69.675 137.462C69.675 139.246 70.2893 140.769 71.5178 142.03C72.7475 143.293 74.2312 143.924 75.9687 143.924C76.9882 143.924 77.9998 143.721 79.0036 143.316C80.0074 142.911 80.9035 142.303 81.6917 141.492L108.183 114.338L113.698 120L87.2063 147.2C86.418 148.011 85.8265 148.983 85.4317 150.116C85.0369 151.249 84.8396 152.287 84.8396 153.23C84.8396 155.118 85.4863 156.641 86.7797 157.8C88.0731 158.959 89.5392 159.538 91.1781 159.538ZM91.1333 167.538C87.1271 167.538 83.6981 166.033 80.8463 163.024C77.9946 160.013 76.7434 156.297 77.0927 151.876C72.6774 151.928 69.001 150.575 66.0636 147.816C63.1274 145.056 61.734 141.205 61.8834 136.262C57.0694 136.313 53.2762 134.9 50.5036 132.024C47.7311 129.147 46.4702 125.354 46.7208 120.646C42.3847 120.698 38.7583 119.447 35.8417 116.892C32.925 114.339 31.4666 110.785 31.4666 106.23C31.4666 104.179 31.8536 102.126 32.6276 100.07C33.4016 98.0127 34.5476 96.2047 36.0657 94.646L75.2636 54.446L95.3875 75.108C96.0472 75.816 96.8615 76.398 97.8302 76.854C98.799 77.31 99.8931 77.538 101.112 77.538C102.78 77.538 104.253 76.9407 105.532 75.746C106.811 74.5513 107.451 72.9947 107.451 71.076C107.451 69.8253 107.228 68.7027 106.783 67.708C106.339 66.7133 105.772 65.8773 105.082 65.2L78.277 37.676C76.3486 35.6667 74.3429 34.1927 72.2599 33.254C70.1769 32.3153 67.8972 31.846 65.4208 31.846C62.9729 31.846 60.7503 32.3153 58.7531 33.254C56.7545 34.1927 54.7761 35.6667 52.8178 37.676L29.098 62.076C27.4306 63.7893 26.0826 65.8307 25.0541 68.2C24.0243 70.5693 23.4795 73.0153 23.4198 75.538C23.3601 77.3433 23.5101 79.0793 23.8698 80.746C24.2295 82.4127 24.7989 83.9793 25.5781 85.446L19.674 91.508C18.365 89.364 17.341 86.8947 16.6021 84.1C15.8632 81.3053 15.5236 78.4513 15.5833 75.538C15.6431 71.9073 16.3521 68.428 17.7105 65.1C19.0688 61.772 21.0122 58.8107 23.5406 56.216L47.1104 32.016C49.8271 29.256 52.7015 27.2047 55.7338 25.862C58.7647 24.518 62.0437 23.846 65.5708 23.846C69.0965 23.846 72.3502 24.518 75.3318 25.862C78.3134 27.2047 81.1476 29.256 83.8344 32.016L90.6229 38.984L97.4114 32.016C100.128 29.256 102.977 27.2047 105.959 25.862C108.94 24.518 112.195 23.846 115.722 23.846C119.248 23.846 122.527 24.518 125.559 25.862C128.59 27.2047 131.449 29.256 134.137 32.016L163.161 61.816C165.848 64.5747 167.921 67.672 169.379 71.108C170.837 74.544 171.567 78.072 171.567 81.692C171.567 85.3133 170.837 88.6547 169.379 91.716C167.921 94.7773 165.848 97.6873 163.161 100.446L102.416 162.77C100.798 164.431 99.0366 165.641 97.1329 166.4C95.2304 167.159 93.2305 167.538 91.1333 167.538Z" fill="#2329A8"/>
</svg>
