<svg width="187" height="192" viewBox="0 0 187 192" fill="none" xmlns="http://www.w3.org/2000/svg">
<path d="M16.6917 107.476C13.7555 102.472 11.5381 97.3747 10.0395 92.184C8.54092 86.9947 7.79163 81.8667 7.79163 76.8C7.79163 64.328 12.027 53.7433 20.4979 45.046C28.9687 36.3487 39.2778 32 51.425 32C59.3062 32 66.8732 34.1 74.126 38.3C81.3774 42.5 87.8354 48.554 93.5 56.462C99.1645 48.554 105.623 42.5 112.874 38.3C120.127 34.1 127.694 32 135.575 32C147.722 32 158.031 36.3487 166.502 45.046C174.973 53.7433 179.208 64.328 179.208 76.8C179.208 81.6613 178.459 86.636 176.96 91.724C175.462 96.8107 173.244 102.011 170.308 107.324C169.495 106.221 168.536 105.235 167.429 104.366C166.322 103.497 165.168 102.769 163.97 102.184C166.437 97.6813 168.295 93.3227 169.543 89.108C170.792 84.892 171.417 80.7893 171.417 76.8C171.417 66.5027 167.951 57.7947 161.019 50.676C154.085 43.5587 145.604 40 135.575 40C127.553 40 120.269 42.4793 113.721 47.438C107.172 52.3967 100.432 59.5173 93.5 68.8C86.568 59.4867 79.8275 52.3587 73.2786 47.416C66.731 42.472 59.4465 40 51.425 40C41.3958 40 32.9146 43.5587 25.9813 50.676C19.0493 57.7947 15.5833 66.5027 15.5833 76.8C15.5833 80.9947 16.2079 85.2253 17.4572 89.492C18.7052 93.7587 20.5128 98.0407 22.8802 102.338C21.6816 103.026 20.5576 103.78 19.5083 104.6C18.4604 105.42 17.5215 106.379 16.6917 107.476ZM7.79163 168.308V161.4C7.79163 156.456 10.3343 152.371 15.4197 149.146C20.505 145.921 27.1039 144.308 35.2163 144.308C36.702 144.308 38.1239 144.367 39.4823 144.484C40.8406 144.603 42.1347 144.795 43.3645 145.062C42.2451 147.113 41.3809 149.267 40.7718 151.524C40.1628 153.781 39.8582 156.186 39.8582 158.738V168.308H7.79163ZM54.5416 168.308V159.308C54.5416 152.692 58.144 147.435 65.3487 143.538C72.5521 139.641 81.9495 137.692 93.5409 137.692C105.241 137.692 114.652 139.641 121.774 143.538C128.897 147.435 132.458 152.692 132.458 159.308V168.308H54.5416ZM147.142 168.308V158.738C147.142 156.186 146.87 153.781 146.326 151.524C145.781 149.267 144.965 147.113 143.877 145.062C145.105 144.795 146.401 144.603 147.763 144.484C149.125 144.367 150.517 144.308 151.937 144.308C160.119 144.308 166.709 145.921 171.709 149.146C176.708 152.371 179.208 156.456 179.208 161.4V168.308H147.142ZM93.4824 145.692C84.6934 145.692 77.4024 146.897 71.6093 149.308C65.8149 151.719 62.7975 154.821 62.5573 158.616V160.308H124.487V158.616C124.217 154.821 121.218 151.719 115.488 149.308C109.76 146.897 102.425 145.692 93.4824 145.692ZM35.2125 136.77C32.1633 136.77 29.5531 135.655 27.3818 133.424C25.2105 131.195 24.1249 128.515 24.1249 125.384C24.1249 122.287 25.2105 119.641 27.3818 117.446C29.5531 115.251 32.1633 114.154 35.2125 114.154C38.2291 114.154 40.8315 115.251 43.0197 117.446C45.2066 119.641 46.3 122.287 46.3 125.384C46.3 128.515 45.2066 131.195 43.0197 133.424C40.8315 135.655 38.2291 136.77 35.2125 136.77ZM151.937 136.77C148.951 136.77 146.356 135.655 144.154 133.424C141.951 131.195 140.85 128.515 140.85 125.384C140.85 122.287 141.951 119.641 144.154 117.446C146.356 115.251 148.96 114.154 151.967 114.154C155.064 114.154 157.681 115.251 159.819 117.446C161.956 119.641 163.025 122.287 163.025 125.384C163.025 128.515 161.963 131.195 159.838 133.424C157.712 135.655 155.079 136.77 151.937 136.77ZM93.5526 131.692C88.823 131.692 84.785 129.987 81.4385 126.576C78.0919 123.167 76.4187 119.026 76.4187 114.154C76.4187 109.185 78.079 105.019 81.3995 101.658C84.7214 98.2967 88.7548 96.616 93.5 96.616C98.3399 96.616 102.397 98.2913 105.671 101.642C108.944 104.993 110.581 109.145 110.581 114.1C110.581 118.956 108.95 123.102 105.686 126.538C102.423 129.974 98.3782 131.692 93.5526 131.692ZM93.5 104.616C90.9923 104.616 88.8172 105.53 86.9744 107.358C85.1317 109.186 84.2104 111.451 84.2104 114.154C84.2104 116.729 85.1317 118.962 86.9744 120.854C88.8172 122.746 91.017 123.692 93.574 123.692C96.1322 123.692 98.3074 122.746 100.1 120.854C101.893 118.962 102.79 116.703 102.79 114.076C102.79 111.451 101.899 109.217 100.119 107.376C98.3386 105.536 96.1322 104.616 93.5 104.616Z" fill="#2329A8"/>
</svg>
