<svg width="187" height="192" viewBox="0 0 187 192" fill="none" xmlns="http://www.w3.org/2000/svg">
<path d="M93.5 166.77C83.9812 166.77 75.0273 164.905 66.6383 161.176C58.2492 157.447 50.9504 152.393 44.7417 146.014C38.5331 139.635 33.6198 132.152 30.0018 123.564C26.3826 114.976 24.573 105.796 24.573 96.024C24.573 86.2533 26.3891 77.0586 30.0213 68.44C33.6535 59.8213 38.5759 52.3226 44.7885 45.944C51.001 39.5653 58.2986 34.5186 66.6811 30.804C75.0637 27.088 84.0124 25.23 93.5273 25.23C109.805 25.23 124.102 30.316 136.417 40.488C148.731 50.66 156.735 63.5126 160.427 79.046C159.118 78.682 157.84 78.4306 156.595 78.292C155.348 78.1533 154.078 78.0766 152.785 78.062C150.147 68.8046 145.718 60.558 139.496 53.322C133.273 46.0846 125.653 40.6386 116.635 36.984V40.492C116.635 44.888 115.128 48.6333 112.114 51.728C109.102 54.8226 105.457 56.37 101.181 56.37H85.8291V72.096C85.8291 74.3813 85.0798 76.2933 83.5812 77.832C82.0826 79.3706 80.2263 80.14 78.0121 80.14H62.573V96H108.844C110.313 96 111.629 96.4126 112.792 97.238C113.956 98.0633 114.825 99.12 115.399 100.408C113.71 103.565 112.442 106.864 111.592 110.304C110.744 113.744 110.32 117.273 110.32 120.892C110.32 128.559 112.14 135.35 115.778 141.266C119.416 147.181 122.973 152.828 126.449 158.208C121.51 161.023 116.291 163.153 110.792 164.6C105.292 166.047 99.5282 166.77 93.5 166.77ZM85.8291 159.108V143.508C81.6087 143.508 77.9959 141.965 74.9909 138.88C71.9872 135.796 70.4854 132.089 70.4854 127.76V119.89L33.325 81.724C32.9354 84.1413 32.5783 86.5333 32.2536 88.9C31.929 91.2666 31.7667 93.6333 31.7667 96C31.7667 112.024 36.8793 126.048 47.1046 138.072C57.3311 150.096 70.2393 157.108 85.8291 159.108ZM150.989 166.466C150.688 166.263 150.482 165.975 150.371 165.6C148.929 161.036 146.971 156.779 144.498 152.83C142.026 148.882 139.346 145.039 136.459 141.302C134.197 138.277 132.271 135.075 130.682 131.696C129.094 128.316 128.3 124.715 128.3 120.892C128.3 114.148 130.597 108.401 135.193 103.65C139.788 98.8993 145.369 96.524 151.938 96.524C158.506 96.524 164.1 98.8993 168.719 103.65C173.339 108.401 175.65 114.148 175.65 120.892C175.65 124.723 174.839 128.324 173.219 131.696C171.598 135.068 169.664 138.264 167.416 141.284C164.608 145.152 161.947 149.035 159.433 152.934C156.918 156.833 154.966 161.055 153.578 165.6C153.402 165.967 153.168 166.253 152.874 166.46C152.582 166.667 152.271 166.77 151.939 166.77C151.608 166.77 151.291 166.669 150.989 166.466ZM151.943 152.9C153.552 150.12 155.252 147.453 157.043 144.9C158.834 142.347 160.636 139.78 162.45 137.2C164.278 134.769 165.885 132.2 167.273 129.492C168.662 126.784 169.356 123.884 169.356 120.792C169.356 115.844 167.673 111.639 164.309 108.178C160.944 104.715 156.825 102.984 151.951 102.984C147.077 102.984 142.966 104.715 139.617 108.178C136.268 111.639 134.593 115.844 134.593 120.792C134.593 123.884 135.275 126.784 136.639 129.492C138.002 132.2 139.601 134.769 141.434 137.2C143.307 139.728 145.124 142.307 146.887 144.938C148.65 147.569 150.336 150.223 151.943 152.9ZM147.57 125.738C146.286 124.421 145.644 122.785 145.644 120.83C145.644 118.877 146.286 117.228 147.57 115.884C148.853 114.541 150.459 113.87 152.387 113.87C154.315 113.87 155.92 114.541 157.205 115.884C158.488 117.228 159.129 118.877 159.129 120.83C159.129 122.785 158.488 124.421 157.205 125.738C155.92 127.057 154.315 127.716 152.387 127.716C150.459 127.716 148.853 127.057 147.57 125.738Z" fill="#2329A8"/>
</svg>
