<svg width="187" height="192" viewBox="0 0 187 192" fill="none" xmlns="http://www.w3.org/2000/svg">
<path d="M45.2891 95.346L22.7751 72.308L45.2891 49.446L67.5557 72.308L45.2891 95.346ZM77.0167 166.77V131.064C69.4757 130.427 61.9866 129.583 54.5495 128.532C47.1136 127.48 39.6791 126.021 32.2458 124.154L33.923 116.77C43.7729 119.226 53.6339 120.999 63.506 122.088C73.378 123.179 83.376 123.724 93.5 123.724C103.624 123.724 113.622 123.179 123.494 122.088C133.366 120.999 143.227 119.226 153.077 116.77L154.754 124.154C147.32 126.029 139.884 127.494 132.449 128.55C125.011 129.605 117.523 130.457 109.983 131.108V166.77H77.0167ZM45.2891 85.138L57.5376 72.308L45.2891 59.654L32.7932 72.308L45.2891 85.138ZM80.9924 53.76C77.568 50.2147 75.8558 45.934 75.8558 40.918C75.8558 35.9007 77.57 31.6214 80.9983 28.08C84.4253 24.54 88.5945 22.77 93.5059 22.77C98.4172 22.77 102.597 24.542 106.045 28.086C109.494 31.6314 111.218 35.912 111.218 40.928C111.218 45.9454 109.492 50.2247 106.039 53.766C102.587 57.306 98.4055 59.076 93.4942 59.076C88.5828 59.076 84.4156 57.304 80.9924 53.76ZM84.3487 106.658C81.819 104.061 80.5542 100.929 80.5542 97.262C80.5542 93.5954 81.819 90.4634 84.3487 87.866C86.8784 85.2687 89.9288 83.97 93.5 83.97C97.0712 83.97 100.122 85.2687 102.651 87.866C105.181 90.4634 106.446 93.5954 106.446 97.262C106.446 100.929 105.181 104.061 102.651 106.658C100.122 109.255 97.0712 110.554 93.5 110.554C89.9288 110.554 86.8784 109.255 84.3487 106.658ZM100.966 48.558C103.006 46.47 104.027 43.928 104.027 40.932C104.027 37.936 103.009 35.3907 100.974 33.296C98.9392 31.2014 96.4505 30.154 93.5078 30.154C90.5651 30.154 88.0868 31.1987 86.0726 33.288C84.0572 35.376 83.0494 37.918 83.0494 40.914C83.0494 43.91 84.0539 46.4554 86.0629 48.55C88.0731 50.6447 90.5496 51.692 93.4922 51.692C96.4349 51.692 98.9263 50.6474 100.966 48.558ZM132.256 94.424L122.15 76.308L132.289 58.116H151.967L162.074 76.308L151.936 94.424H132.256ZM136.202 87.038H147.989L153.765 76.308L148.022 65.5H136.233L130.458 76.308L136.202 87.038Z" fill="#2329A8"/>
</svg>
