<svg width="187" height="192" viewBox="0 0 187 192" fill="none" xmlns="http://www.w3.org/2000/svg">
<path d="M22.0037 147.324V134.892C22.0037 131.247 22.9049 128.144 24.7074 125.584C26.5111 123.024 28.985 120.963 32.1289 119.4C38.7544 116.128 45.3391 113.527 51.8828 111.596C58.4252 109.665 66.2941 108.7 75.4896 108.7C84.685 108.7 92.5377 109.665 99.0477 111.596C105.559 113.527 112.161 116.129 118.854 119.402C121.985 120.985 124.45 123.053 126.25 125.606C128.051 128.159 128.952 131.255 128.952 134.892V147.324H22.0037ZM144.393 147.324V134.646C144.393 130.077 143.471 125.799 141.625 121.814C139.78 117.829 137.244 114.411 134.017 111.562C137.618 112.413 141.106 113.506 144.483 114.842C147.858 116.177 151.234 117.709 154.612 119.438C157.844 121.135 160.395 123.311 162.265 125.964C164.135 128.616 165.07 131.51 165.07 134.646V147.324H144.393ZM59.427 84.43C55.0312 79.918 52.8333 74.4207 52.8333 67.938C52.8333 61.4567 55.0312 55.9594 59.427 51.446C63.8215 46.9327 69.1757 44.676 75.4896 44.676C81.8021 44.676 87.1563 46.9327 91.5521 51.446C95.9479 55.9594 98.1458 61.4567 98.1458 67.938C98.1458 74.4207 95.9479 79.918 91.5521 84.43C87.1563 88.9434 81.8021 91.2 75.4896 91.2C69.1757 91.2 63.8215 88.9434 59.427 84.43ZM123.362 84.322C118.957 88.8407 113.608 91.1 107.315 91.1C107.081 91.1 106.767 91.072 106.372 91.016C105.977 90.96 105.652 90.898 105.398 90.83C108.024 87.634 110.029 84.078 111.413 80.162C112.797 76.246 113.49 72.1487 113.49 67.87C113.49 63.626 112.751 59.5774 111.275 55.724C109.798 51.872 107.839 48.272 105.398 44.924C105.723 44.7854 106.054 44.7094 106.393 44.696C106.733 44.6827 107.041 44.676 107.315 44.676C113.608 44.676 118.957 46.9294 123.362 51.436C127.768 55.9427 129.971 61.4207 129.971 67.87C129.971 74.3207 127.768 79.8047 123.362 84.322ZM29.1954 139.938H121.76V134.912C121.76 132.997 121.303 131.339 120.389 129.938C119.475 128.538 117.826 127.171 115.443 125.838C109.638 122.663 103.573 120.244 97.2458 118.58C90.9177 116.916 83.6767 116.084 75.5227 116.084C67.3466 116.084 60.0841 116.916 53.7352 118.58C47.385 120.244 41.3108 122.663 35.5125 125.838C33.0802 127.171 31.4192 128.543 30.5297 129.954C29.6401 131.363 29.1954 133.009 29.1954 134.892V139.938ZM86.4232 79.178C89.4425 76.086 90.9521 72.3434 90.9521 67.95C90.9521 63.558 89.4464 59.812 86.4349 56.712C83.4247 53.612 79.7802 52.062 75.5013 52.062C71.2223 52.062 67.5732 53.608 64.554 56.7C61.5347 59.7907 60.025 63.5327 60.025 67.926C60.025 72.3194 61.5308 76.066 64.5423 79.166C67.5537 82.266 71.199 83.816 75.4779 83.816C79.7555 83.816 83.404 82.27 86.4232 79.178Z" fill="#2329A8"/>
</svg>
