<svg width="1024" height="1024" viewBox="0 0 1024 1024" xmlns="http://www.w3.org/2000/svg" preserveAspectRatio="xMidYMid meet"><svg x="352" y="595" width="321" height="109" xmlns="http://www.w3.org/2000/svg" preserveAspectRatio="none"><svg version="1.1" xmlns="http://www.w3.org/2000/svg" style="display: block;" width="321" height="109" viewBox="249.60 89.45 1551.32 526.77" preserveAspectRatio="none"><g id="svg-group-cd21a061-09a8-4758-ba59-0f6c240859b3">
<path transform="translate(0,0)" fill="rgb(254,254,254)" d="M 1034.86 97.0551 C 1093.23 89.4471 1146.72 130.586 1154.34 188.951 C 1161.97 247.317 1120.85 300.817 1062.48 308.461 C 1004.1 316.108 950.566 274.964 942.937 216.573 C 935.308 158.182 976.468 104.666 1034.86 97.0551 z M 1054.42 281.918 C 1098.1 278.903 1131.09 241.082 1128.14 197.397 C 1125.19 153.713 1087.41 120.671 1043.73 123.555 C 999.944 126.446 966.817 164.315 969.773 208.092 C 972.729 251.869 1010.65 284.94 1054.42 281.918 z"/>
<path transform="translate(0,0)" fill="rgb(254,254,254)" d="M 861.611 386.31 C 919.722 381.457 970.724 424.722 975.411 482.846 C 980.098 540.97 936.687 591.848 878.55 596.368 C 820.648 600.87 770.02 557.673 765.352 499.784 C 760.684 441.895 803.736 391.144 861.611 386.31 z M 877.403 569.425 C 920.576 565.583 952.41 527.392 948.413 484.233 C 944.416 441.074 906.111 409.378 862.966 413.53 C 820.041 417.661 788.541 455.73 792.517 498.67 C 796.494 541.61 834.449 573.247 877.403 569.425 z"/>
<path transform="translate(0,0)" fill="rgb(254,254,254)" d="M 299.13 100.356 C 306.444 99.8667 313.449 100.003 320.737 99.8487 C 365.622 98.8955 415.457 97.6055 446.995 136.055 C 473.091 167.868 472.183 227.805 450.495 261.849 C 444.564 271.16 437.078 277.093 428.612 283.942 C 402.498 305.951 370.205 304.88 338.671 304.865 C 324.214 304.977 309.756 304.836 295.303 304.442 C 292.44 302.414 288.759 300.075 287.593 296.596 C 283.176 283.415 282.067 117.487 288.089 106.419 C 290.1 102.724 295.416 101.525 299.13 100.356 z M 314.954 279.984 C 351.852 279.935 388.246 285.466 416.362 258.908 C 444.899 225.57 447.795 173.278 413.453 142.342 C 389.186 120.482 345.759 125.204 314.611 125.277 C 313.678 175.999 314.453 229.15 314.954 279.984 z"/>
<path transform="translate(0,0)" fill="rgb(254,254,254)" d="M 1023.74 391.168 C 1038.47 390.216 1055.59 390.843 1070.49 390.791 C 1093.18 390.712 1121.48 388.601 1142.02 398.601 C 1155.23 405.098 1165.36 416.54 1170.2 430.449 C 1175.35 445.481 1174.02 465.814 1166.72 480.03 C 1156.14 500.619 1143.03 504.068 1122.68 510.82 C 1131.66 524.525 1174.31 573.017 1174.58 584.657 C 1174.63 586.869 1172.92 589.338 1171.4 590.806 C 1168.69 593.435 1165.38 595.034 1161.55 594.825 C 1153.88 594.406 1148.94 588.745 1144.26 583.372 C 1127.59 562.642 1107.06 530.713 1089.05 512.437 C 1075.06 512.098 1054.92 511.631 1041.18 512.907 C 1040.26 531.776 1043.41 567.653 1039.44 583.629 C 1038.3 588.21 1036.57 591.463 1032.37 593.905 C 1030 595.286 1027.73 595.816 1025.05 595.085 C 1021.38 594.085 1018.07 590.945 1016.29 587.659 C 1014.3 583.983 1014.39 579.443 1014.2 575.359 C 1013.33 556.41 1012.26 408.183 1015.12 399.319 C 1016.53 394.933 1019.91 393.11 1023.74 391.168 z M 1041.82 486.398 C 1064.93 486.652 1118.59 490.236 1135.04 476.062 C 1143.69 465.702 1145.99 457.466 1144.76 443.843 C 1141.17 404.097 1069.08 415.432 1041.4 415.4 C 1041.24 439.067 1041.38 462.735 1041.82 486.398 z"/>
<path transform="translate(0,0)" fill="rgb(254,254,254)" d="M 732.722 388.882 C 737.498 390.353 741.187 391.212 744.468 394.954 C 748.682 403.132 737.045 437.194 733.813 446.84 C 720.227 487.384 708.029 528.413 694.15 568.837 C 691.45 576.702 687.084 587.442 681.656 593.606 C 680.526 594.885 675.043 594.202 673.525 593.782 C 668.831 592.505 664.758 589.571 662.06 585.524 C 658.008 579.379 652.065 561.506 649.308 553.785 L 626.066 488.008 C 621.742 475.486 613.918 450.927 607.977 440.518 C 603.574 450.313 599.558 464.008 595.967 474.415 C 584.153 508.658 574.319 543.933 561.428 577.77 C 558.784 584.002 555.472 591.446 548.843 594.172 C 541.826 597.059 534.043 590.468 531.177 584.362 C 524.416 569.954 520.156 554.013 515.024 538.881 L 483.078 444.185 C 478.341 430.579 455.573 380.025 490.553 392.461 C 496.875 394.708 512.417 447.838 514.948 456.126 C 520.355 473.312 525.964 490.435 531.773 507.49 C 535.523 518.675 539.846 533.072 545.46 543.168 C 564.13 500.066 575.449 449.531 592.044 405.348 C 597.214 391.582 603.61 388.637 617.144 394.312 C 628.061 407.847 634.905 437.522 641.457 455.236 C 652.268 484.465 660.677 517.197 673.995 545.38 C 686.818 513.62 696.61 477.552 706.719 444.82 C 710.859 431.417 716.635 407.445 721.801 395.394 C 724.882 392.965 729.225 390.795 732.722 388.882 z"/>
<path transform="translate(0,0)" fill="rgb(254,254,254)" d="M 658.122 100.238 C 669.496 99.3535 676.268 100.35 681.967 111.432 C 694.416 135.638 704.782 160.935 716.441 185.51 C 727.511 208.846 738.552 232.105 748.78 255.839 C 754.279 268.665 761.56 282.094 764.287 295.586 C 759.719 304.701 751.145 310.281 742.55 301.801 C 728.601 288.038 727.01 265.656 713.449 251.425 C 700.722 251.004 686.353 251.32 673.5 251.312 C 658.367 251.397 630.689 249.889 616.878 252.592 C 600.006 258.989 601.323 295.629 585.112 303.335 C 566.72 312.078 564.082 293.005 569.87 279.998 C 576.2 265.774 583.33 251.39 589.799 236.889 L 640.998 121.391 C 644.88 112.479 648.93 103.86 658.122 100.238 z M 624.924 226.036 L 668.123 226.218 C 679.59 226.231 692.451 225.971 703.804 226.472 C 699.677 215.7 668.694 142.748 662.988 135.504 C 654.46 161.394 636.015 199.496 624.924 226.036 z"/>
<path transform="translate(0,0)" fill="rgb(254,254,254)" d="M 1278.5 96.3566 C 1298.31 94.8513 1324.98 101.416 1342.58 111.437 C 1350.26 115.809 1358.56 121.241 1361.52 130.375 C 1365.05 141.288 1355.75 148.266 1345.05 143.709 C 1289.15 90.1571 1188.85 135.163 1210.66 224.897 C 1215.73 245.668 1228.98 263.51 1247.39 274.372 C 1265.76 285.431 1289.4 287.559 1309.76 281.955 C 1327.19 277.156 1334.45 277.395 1343.89 261.663 C 1344.75 248.942 1344.33 232.498 1344.11 219.553 C 1330.81 218.351 1305.06 219.044 1290.74 218.976 C 1272.89 212.492 1282.57 194.186 1299.45 194.847 C 1310.01 195.574 1359.52 191.258 1365.74 198.996 C 1375.8 211.513 1374.59 270.07 1359.56 283.916 C 1321.29 319.175 1251.6 315.501 1214.25 282.617 C 1173.52 246.759 1170.75 168.709 1207.89 129.808 C 1223.89 112.701 1254.44 97.2701 1278.5 96.3566 z"/>
<path transform="translate(0,0)" fill="rgb(254,254,254)" d="M 1646.43 100.408 C 1677.89 98.5879 1713.98 100.784 1745.85 100.362 C 1763.44 100.129 1768.45 108.683 1758.19 124.095 C 1724.27 125.427 1686.95 122.936 1652.79 125.212 C 1650.58 125.36 1649.73 126.115 1648.32 127.648 C 1646.76 136.231 1646.98 174.582 1648.14 183.572 C 1648.2 184.055 1648.4 185.961 1648.68 186.309 C 1654.36 193.347 1732.86 180.655 1747.11 192.397 C 1749.45 194.332 1750.27 197.097 1750.43 200.043 C 1750.59 202.922 1749.93 205.494 1747.91 207.617 C 1745.43 210.216 1741.84 211.337 1738.39 211.906 C 1730 213.286 1720.63 212.446 1712.12 212.363 C 1695.23 212.199 1678.33 211.813 1661.44 211.879 C 1657.4 211.895 1651.28 211.587 1648.21 214.675 C 1646.93 218.57 1647.43 221.219 1647.78 225.272 C 1647.94 231.446 1645.08 279.954 1650.28 280.588 C 1683.33 284.622 1718.72 280.26 1752.17 282.572 C 1766.64 283.572 1768.05 304.09 1751.81 305.087 C 1712.14 303.082 1667.67 307.062 1628.65 304.314 C 1617.05 294.373 1619.15 282.652 1619.21 268.368 C 1619.41 220.008 1618.7 171.581 1619.64 123.24 C 1620.08 100.593 1627.66 101.754 1646.43 100.408 z"/>
<path transform="translate(0,0)" fill="rgb(254,254,254)" d="M 1356.13 388.055 C 1357.44 387.962 1358.75 387.938 1360.05 387.982 C 1366.98 388.21 1369.39 391.667 1373.9 396.546 C 1366.99 418.021 1311.65 463.826 1294.17 482.736 C 1306.93 495.812 1375.12 570.168 1376.1 581.934 C 1376.35 584.919 1375.52 587.75 1373.53 590.019 C 1371.29 592.556 1368.02 594.868 1364.52 594.901 C 1359.22 594.95 1353.82 590.062 1350.16 586.66 C 1341.38 578.491 1333.88 567.926 1326.21 558.688 C 1309.11 538.097 1292.27 517.107 1273.37 498.125 C 1262.78 509.63 1250.89 520.079 1240.18 531.682 C 1238.9 548.066 1247.99 616.22 1215.17 587.037 C 1213.48 550.522 1214.82 513.532 1214.77 476.948 C 1214.73 452.434 1212.91 422.503 1215.1 398.769 C 1215.26 397.106 1215.72 395.818 1216.77 394.503 C 1218.69 392.096 1223.09 389.121 1226.19 388.804 C 1229.49 388.466 1232.7 390.217 1235.14 392.287 C 1245.61 401.141 1240.27 473.986 1241.75 491.157 L 1242.81 491.666 C 1245.14 490.472 1248.17 488.507 1250.14 486.761 C 1279.27 460.843 1307.23 433.691 1334.56 405.878 C 1341.66 398.659 1347.51 393.294 1356.13 388.055 z"/>
<path transform="translate(0,0)" fill="rgb(254,254,254)" d="M 1421.11 99.9878 C 1428.42 99.6109 1433.23 99.9259 1435.37 108.617 C 1441.59 133.937 1434.84 161.17 1436.14 186.968 C 1436.65 196.967 1436.85 207.062 1437.32 217.07 C 1437.82 237.177 1437.81 255.372 1454.09 269.791 C 1465.03 280.386 1481 284.175 1495.52 283.478 C 1542.02 281.246 1552.02 246.151 1550.49 206.259 C 1549.87 190.311 1553.02 170.84 1551.76 153.885 C 1550.82 141.202 1551.86 125.628 1552.13 112.732 C 1552.96 100.756 1563.26 95.3146 1572.29 104.011 C 1579.91 111.352 1578.84 122.953 1578.8 132.75 C 1578.46 171.058 1583.62 220.676 1571.77 257.017 C 1565.88 275.101 1553.96 290.077 1536.86 298.716 C 1512.7 310.926 1484.78 311.206 1459.48 302.709 C 1442.36 296.961 1427.27 285.6 1419.22 269.147 C 1414.92 260.371 1412.72 250.608 1411.45 240.963 C 1408.92 221.603 1406.24 124.831 1411.65 109.372 C 1413.55 103.925 1416.21 102.372 1421.11 99.9878 z"/>
<path transform="translate(0,0)" fill="rgb(254,254,254)" d="M 1463.44 387.369 C 1474.75 385.964 1497.02 389.083 1508 392.541 C 1524.55 397.75 1534.66 403.898 1542.92 419.093 C 1536.45 430.539 1532.87 435.357 1521.51 426.759 C 1494.47 406.291 1451.55 401.095 1429.3 431.427 C 1428.65 435.276 1428.33 439.175 1428.34 443.079 C 1428.8 482.223 1511.11 474.691 1534.77 501.089 C 1564.31 534.046 1547.32 582.372 1505.31 592.849 C 1494.06 595.652 1485.87 595.786 1474.27 595.883 C 1448.88 596.089 1433.06 589.149 1411.49 575.677 C 1400.95 569.093 1392.14 553.209 1410.05 546.042 C 1414.26 544.355 1427.71 555.05 1431.8 558.658 C 1445.92 571.525 1469.73 575.25 1487.51 572.331 C 1539.94 563.723 1531.05 509.901 1480.91 504.089 C 1464.85 502.228 1433.48 491.192 1421.11 482.258 C 1400.59 467.428 1396.52 430.709 1412.44 411.014 C 1424.96 395.301 1444.22 389.512 1463.44 387.369 z"/>
<path transform="translate(0,0)" fill="rgb(254,254,254)" d="M 803.872 99.9533 C 812.88 99.3796 814.019 101.369 821.689 106.962 C 823.9 160.185 821.122 220.316 822.212 274.713 L 827.867 280.168 C 856.852 284.071 895.058 279.409 924.365 283.672 C 931.503 284.711 932.311 301.608 922.546 304.588 C 910.711 305.078 897.883 304.901 886.024 304.792 C 860.186 304.556 834.106 305.708 808.356 304.097 C 799.795 303.561 797.172 297.648 797.07 290.149 C 796.623 257.294 797.036 224.497 796.835 191.646 C 796.463 165.246 793.157 138.603 796.285 112.201 C 796.984 106.301 799.145 103.274 803.872 99.9533 z"/>
<path transform="translate(0,0)" fill="rgb(254,254,254)" d="M 515.049 100.157 C 526.591 99.0193 527.005 100.629 532.796 110.437 C 533.642 131.446 533.044 156.084 533.043 177.309 L 532.906 293.691 C 529.858 298.94 528.861 300.72 524.683 305.06 C 513.677 305.054 507.78 303.983 507.253 291.427 C 505.086 238.012 506.628 184.25 506.059 130.746 C 505.922 117.857 503.318 107.4 515.049 100.157 z"/>
</g></svg></svg><svg x="387" y="317" width="251" height="251" xmlns="http://www.w3.org/2000/svg" preserveAspectRatio="none"><svg version="1.1" xmlns="http://www.w3.org/2000/svg" style="display: block;" width="251" height="251" viewBox="1.27 3.87 2008.03 2008.03" preserveAspectRatio="none"><g id="svg-group-2de8bce1-6ce9-4d66-b0c5-4c10358b10bc">
<path transform="translate(0,0)" fill="rgb(254,254,254)" d="M 236.876 366.674 C 271.169 324.22 311.235 286.29 351.77 249.852 C 373.062 230.712 390.861 216.658 413.625 199.846 C 560.994 90.8173 735.597 26.3834 918.166 11.4069 C 950.205 8.77864 973.821 3.87431 1007.29 4.54757 C 1033.49 5.0744 1051.55 7.37914 1077.2 9.8546 C 1132.7 15.21 1186.58 21.1482 1240.97 34.4686 C 1252.14 37.093 1263.53 39.2672 1274.63 42.4843 C 1327.18 57.7172 1378.14 77.2929 1428.89 97.6102 C 1528.99 143.975 1632.09 214.653 1709.67 292.034 C 1793.34 375.149 1862.07 472.055 1912.85 578.502 C 1951.41 660.632 1978.66 749.794 1995.21 838.994 C 1998.38 856.119 1998.73 887.548 2007.28 900.579 L 2008 901.653 L 2008 1084.51 C 2004.75 1087.58 2002.42 1090.01 2001.45 1094.49 C 1998.07 1110.07 1997.39 1126.71 1994.78 1142.5 C 1986.83 1190.5 1978.01 1237.54 1963.74 1284.15 C 1919.18 1429.66 1849.96 1561.95 1746.79 1674.7 C 1734.29 1688.37 1722.45 1703.06 1708.8 1715.57 C 1578.65 1834.92 1448.68 1917.45 1277.85 1966.69 C 1245.58 1975.99 1211.91 1984.86 1178.75 1990.26 C 1156.48 1993.88 1133.33 1994.66 1111.4 1999.91 C 1104.72 2001.51 1099.07 2003.81 1093.58 2008 L 1020.15 2008 C 996.517 2003.59 955.439 2011.9 932.898 2006.51 C 895.378 1996.03 858.679 1994.08 820.583 1985.79 C 757.75 1972.12 693.107 1954.17 633.453 1929.92 C 614.11 1922.05 598.498 1914.97 580.022 1906.13 C 472.703 1856.02 374.56 1788.24 289.685 1705.63 C 269.733 1686.06 243.813 1655.22 226.263 1633.77 C 110.607 1494.47 37.6886 1324.7 16.2916 1144.91 C 15.2298 1136.48 14.541 1128.01 13.4983 1119.61 C 7.08466 1067.96 8.35585 1016.22 7.90383 964.238 C 5.55456 962.017 4.64693 961.176 2.56051 958.611 C 3.23192 955.22 4.79145 954.983 8.13693 952.05 C 13.4749 855.876 23.8638 755.339 52.1865 663.156 C 52.5716 661.902 38.7489 612.333 37.4183 605.475 C 23.5496 534 12.3992 457.244 17.7466 384.3 C 20.5187 344.013 26.1423 303.974 34.5752 264.482 C 48.075 202.935 94.8381 58.1711 142.314 17.2657 C 152.58 15.2562 160.613 15.5258 170.761 17.2228 C 176.351 23.8491 178.694 27.5844 182.775 35.0942 C 182.841 52.2295 178.961 70.9526 179.319 89.5516 C 180.925 172.94 195.022 293.673 236.876 366.674 z M 269.348 433.699 C 276.211 451.541 298.41 485.521 309.416 501.917 C 387.186 618.125 495.995 710.187 623.478 767.639 C 801.566 846.686 984.153 851.933 1079.92 1051.72 C 1092.36 1045.13 1103.52 1040.03 1115.94 1032.97 C 1178.57 997.383 1227.26 953.221 1273.82 898.286 C 1338.12 824.289 1368.14 742.872 1464.65 702.989 C 1575.92 657.008 1687.62 676.203 1776.25 757.759 C 1810.13 788.939 1844.92 823.864 1884.18 847.698 C 1900.5 857.295 1919.66 862.73 1936.25 870.816 L 1935.84 869.444 C 1931.84 855.721 1927.58 826.449 1924.43 810.963 C 1917.96 778.929 1909.46 747.34 1898.98 716.388 C 1827.32 495.77 1675.99 309.792 1474.54 194.789 C 1321.1 107.952 1146.49 65.587 970.316 72.4472 C 726.5 80.3379 495.769 184.62 328.743 362.415 C 315.601 376.544 276.726 417.842 270.005 432.31 L 269.348 433.699 z M 485.208 1065.55 C 413.719 1071.12 296.219 991.73 243.463 947.035 C 197.549 908.135 156.374 860.312 124.039 809.636 C 120.387 803.911 98.2118 768.791 94.0378 767.512 C 87.114 775.881 83.6752 838.631 85.354 850.192 C 102.013 964.919 165.539 1090.21 256.004 1164.08 C 339.593 1233.12 442.116 1275.24 550.093 1284.91 C 570.367 1286.63 590.752 1285.8 611.072 1286.08 C 620.935 1286.22 629.518 1285.76 637.798 1291.85 C 651.535 1301.97 653.928 1318.85 643.142 1332.53 C 631.509 1347.28 609.959 1348.9 592.572 1350.85 C 534.374 1354.89 465.457 1341.73 410.762 1322.43 C 385.473 1313.99 360.769 1303.88 336.811 1292.18 C 328.056 1287.91 289.366 1265.98 281.257 1267.43 C 276.883 1275.33 298.139 1304.28 303.149 1310.81 C 400.42 1437.55 553.365 1530.06 716.761 1524.2 C 751.998 1522.94 777.812 1522.85 812.692 1512.58 C 897.889 1487.75 969.665 1429.97 1012.11 1352.04 C 1048.11 1285.64 1058.67 1196.19 1037.57 1123.72 C 1013.86 1042.27 954.436 974.739 879.589 935.653 C 799.014 892.924 708.616 874.38 624.897 839.006 C 534.63 800.865 438.142 743.809 367.639 675.089 C 276.236 585.997 186.976 446.435 149.221 324.138 C 138.349 288.628 130.054 252.38 124.401 215.676 C 123.726 211.172 124.712 206.659 120.561 205.166 C 109.793 225.768 98.366 266.914 93.5498 289.853 C 70.5565 401.425 76.6208 517.034 111.161 625.588 C 163.455 792.463 282.562 930.302 444.306 996.362 C 465.593 1005.06 512.665 1019.43 497.826 1051.1 C 495.191 1056.81 489.988 1061.71 485.208 1065.55 z M 72.2597 1042.5 C 72.807 1066.86 73.004 1091.28 75.4064 1115.54 C 88.257 1236.87 125.726 1354.29 185.522 1460.63 C 200.002 1486.1 215.961 1516.73 237.449 1536.9 C 238.105 1537.51 238.77 1538.12 239.445 1538.71 C 261.688 1542.23 285.097 1542.22 307.582 1543.97 C 367.74 1548.65 428.394 1555.1 488.8 1550.61 C 487.559 1545.47 481.023 1542.28 476.63 1539.61 C 451.541 1524.38 426.088 1510.31 401.907 1493.56 C 310.867 1430.49 230.735 1343.07 183.185 1242.38 C 170.629 1215.79 164.296 1187.52 152.88 1160.67 C 148.975 1151.49 74.6166 1043.49 73.139 1042.78 C 72.8622 1042.64 72.5528 1042.59 72.2597 1042.5 z M 1863.25 937.413 C 1799.28 942.094 1739.08 964.432 1696.35 1013.94 C 1655.44 1061.34 1640.62 1132.16 1621.41 1190.95 C 1610.92 1222.47 1599.64 1253.71 1587.56 1284.65 C 1487.07 1540.91 1318.34 1748.98 1056.61 1849.57 C 979.707 1879.12 904.814 1897.28 822.538 1903.67 C 788.137 1906.34 762.704 1898.96 729.795 1897.71 L 728.595 1897.65 C 741.093 1903.25 756.229 1905.58 769.558 1908.66 C 788.565 1913.14 807.611 1917.46 826.694 1921.6 C 1067.45 1971.09 1318 1920.85 1521.06 1782.35 C 1731.05 1644.06 1876.57 1427.08 1924.81 1180.31 C 1934.81 1127.59 1940.59 1074.16 1942.07 1020.52 C 1942.88 992.809 1941.94 965.056 1942.74 937.391 C 1916.7 936.717 1889.09 934.704 1863.25 937.413 z M 1580 744.468 C 1418.16 750.321 1386.89 886.779 1289 984.56 C 1236.96 1036.55 1169.95 1082.32 1104.37 1115.25 C 1107.12 1140.17 1111.91 1162.37 1112.91 1187.76 C 1116.59 1276.91 1085.32 1379.32 1029.15 1449.02 C 954.068 1542.19 822.155 1597.61 703.329 1592.74 C 663.467 1591.11 659.724 1593.44 620.978 1603.66 C 605.713 1607.6 590.245 1610.69 574.644 1612.94 C 518.586 1621.26 464.042 1620.31 407.488 1618.29 C 367.368 1616.87 327.894 1614.43 288.173 1608.2 L 289.319 1609.12 C 296.683 1615.16 306.546 1626.95 313.203 1634.36 C 322.801 1645.21 332.781 1655.71 343.126 1665.84 C 400.355 1722.39 464.662 1767.89 539.243 1798.39 C 621.953 1829.47 685.109 1835.17 772.53 1836.44 C 885.656 1838.09 973.206 1814.89 1075.36 1769.46 C 1314.49 1663.11 1461.25 1446.42 1548.3 1207.38 C 1590.64 1091.1 1600.41 963.684 1728.45 905.358 C 1755.61 892.934 1784.53 884.823 1814.19 881.318 C 1734.71 814.994 1693.09 743.372 1580 744.468 z"/>
<path transform="translate(0,0)" fill="rgb(0,0,0)" d="M 970.316 72.4472 C 1146.49 65.587 1321.1 107.952 1474.54 194.789 C 1675.99 309.792 1827.32 495.77 1898.98 716.388 C 1909.46 747.34 1917.96 778.929 1924.43 810.963 C 1927.58 826.449 1931.84 855.721 1935.84 869.444 L 1936.25 870.816 C 1919.66 862.73 1900.5 857.295 1884.18 847.698 C 1844.92 823.864 1810.13 788.939 1776.25 757.759 C 1687.62 676.203 1575.92 657.008 1464.65 702.989 C 1368.14 742.872 1338.12 824.289 1273.82 898.286 C 1227.26 953.221 1178.57 997.383 1115.94 1032.97 C 1103.52 1040.03 1092.36 1045.13 1079.92 1051.72 C 984.153 851.933 801.566 846.686 623.478 767.639 C 495.995 710.187 387.186 618.125 309.416 501.917 C 298.41 485.521 276.211 451.541 269.348 433.699 L 270.005 432.31 C 276.726 417.842 315.601 376.544 328.743 362.415 C 495.769 184.62 726.5 80.3379 970.316 72.4472 z M 1079.04 1044.97 C 1107.23 1041.27 1163.65 1000.74 1186.56 982.425 C 1214.28 960.252 1242.36 929.281 1266.67 903.489 C 1273.28 896.277 1279.12 887.609 1285.35 881.104 C 1313.04 848.55 1334.78 809.905 1360.89 778.353 C 1464.93 652.606 1657.63 640.389 1775.85 753.966 C 1786.95 764.63 1798.69 774.311 1810.31 784.326 C 1837.98 810.177 1869.65 842.751 1906.43 855.06 C 1913.95 857.578 1921.4 856.197 1929.08 856.615 C 1927.88 832.558 1917.6 792.727 1911.57 769.105 C 1864.99 593.391 1768.68 434.856 1634.21 312.531 C 1480.06 176.35 1285.99 93.7032 1080.98 76.9403 C 1070.24 76.0268 1057.83 75.9465 1046.99 76.1326 C 1012.37 76.7276 976.904 75.0819 942.362 76.4445 C 936.904 76.6045 931.746 76.9476 926.327 77.5846 C 894.58 81.3171 863.938 85.6147 832.466 91.3114 C 638.824 126.032 461.661 222.605 327.554 366.542 C 320.872 373.621 315.356 381.16 309.006 388.36 C 298.365 400.424 285.344 413.965 276.222 427.187 C 275.176 446.832 281.833 452.197 291.488 468.712 C 318.776 515.391 353.163 557.1 388.758 597.591 C 405.825 616.993 423.275 631.469 442.212 648.244 C 491.614 692.006 551.049 731.332 610.842 759.161 C 642.899 772.961 676.707 787.472 709.636 798.686 C 800.001 829.459 892.128 853.474 969.321 912.387 C 1014.73 947.044 1055.51 992.129 1079.04 1044.97 z"/>
<path transform="translate(0,0)" fill="rgb(0,0,0)" d="M 120.561 205.166 C 124.712 206.659 123.726 211.172 124.401 215.676 C 130.054 252.38 138.349 288.628 149.221 324.138 C 186.976 446.435 276.236 585.997 367.639 675.089 C 438.142 743.809 534.63 800.865 624.897 839.006 C 708.616 874.38 799.014 892.924 879.589 935.653 C 954.436 974.739 1013.86 1042.27 1037.57 1123.72 C 1058.67 1196.19 1048.11 1285.64 1012.11 1352.04 C 969.665 1429.97 897.889 1487.75 812.692 1512.58 C 777.812 1522.85 751.998 1522.94 716.761 1524.2 C 553.365 1530.06 400.42 1437.55 303.149 1310.81 C 298.139 1304.28 276.883 1275.33 281.257 1267.43 C 289.366 1265.98 328.056 1287.91 336.811 1292.18 C 360.769 1303.88 385.473 1313.99 410.762 1322.43 C 465.457 1341.73 534.374 1354.89 592.572 1350.85 C 609.959 1348.9 631.509 1347.28 643.142 1332.53 C 653.928 1318.85 651.535 1301.97 637.798 1291.85 C 629.518 1285.76 620.935 1286.22 611.072 1286.08 C 590.752 1285.8 570.367 1286.63 550.093 1284.91 C 442.116 1275.24 339.593 1233.12 256.004 1164.08 C 165.539 1090.21 102.013 964.919 85.354 850.192 C 83.6752 838.631 87.114 775.881 94.0378 767.512 C 98.2118 768.791 120.387 803.911 124.039 809.636 C 156.374 860.312 197.549 908.135 243.463 947.035 C 296.219 991.73 413.719 1071.12 485.208 1065.55 C 489.988 1061.71 495.191 1056.81 497.826 1051.1 C 512.665 1019.43 465.593 1005.06 444.306 996.362 C 282.562 930.302 163.455 792.463 111.161 625.588 C 76.6208 517.034 70.5565 401.425 93.5498 289.853 C 98.366 266.914 109.793 225.768 120.561 205.166 z M 651.843 1302.15 C 654.244 1320.47 651.012 1336.3 632.682 1344.34 C 576.219 1369.09 475.545 1347.22 421.779 1329.26 C 383.124 1317.18 343.193 1299.39 307.783 1280.1 C 304.051 1278.07 296.439 1275.4 292.376 1276.51 C 285.669 1296.87 342.052 1351.18 356.587 1366.21 C 438.234 1450.65 552.745 1513.07 671.341 1520.16 C 681.556 1520.76 692.825 1519.79 702.965 1520.35 C 762.569 1523.65 814.276 1514.65 867.636 1488.45 C 1034.37 1406.56 1100.62 1196.31 993.584 1039.32 C 901.942 904.912 739.061 895.83 601.953 832.697 C 467.312 770.862 352.121 683.967 268.52 561.248 C 204.289 466.963 152.807 375.141 129.797 262.674 C 127.8 252.91 127.124 230.178 115.995 228.49 C 107.056 244.02 103.267 262.611 99.0363 279.946 C 88.3233 323.842 82.4588 368.943 83.9462 414.168 C 78.0813 640.689 198.367 876.274 407.352 975.76 C 417.233 980.464 426.557 985.433 436.896 990.385 C 459.306 1001.12 494.879 1007.94 503.646 1035 C 507.743 1047.64 494.754 1062.37 484.314 1068.17 C 476.248 1068.43 461.512 1069.11 454.19 1067.04 C 317.7 1028.45 195.16 927.292 120.036 808.094 C 115.286 800.557 104.03 782.483 96.2149 780.075 L 94.7025 780.658 C 92.1939 787.117 91.5115 796.194 90.2981 803.031 C 82.7509 845.555 94.4013 885.927 106.742 926.257 C 110.681 939.128 116.111 957.59 121.321 969.835 C 147.551 1031.48 182.699 1090.37 231.364 1136.99 C 240.815 1146.05 249.837 1156.15 260.229 1164.52 C 282.042 1182.1 305.156 1196.89 329.29 1210.94 C 358.625 1228.55 388.316 1242.43 420.304 1254.62 C 462.479 1270.68 504.901 1276.93 549.48 1281.58 C 577.91 1284.54 603.806 1283.57 632.078 1285.05 C 637.929 1285.35 648.068 1297.35 651.843 1302.15 z"/>
<path transform="translate(0,0)" fill="rgb(0,0,0)" d="M 1580 744.468 C 1693.09 743.372 1734.71 814.994 1814.19 881.318 C 1784.53 884.823 1755.61 892.934 1728.45 905.358 C 1600.41 963.684 1590.64 1091.1 1548.3 1207.38 C 1461.25 1446.42 1314.49 1663.11 1075.36 1769.46 C 973.206 1814.89 885.656 1838.09 772.53 1836.44 C 685.109 1835.17 621.953 1829.47 539.243 1798.39 C 464.662 1767.89 400.355 1722.39 343.126 1665.84 C 332.781 1655.71 322.801 1645.21 313.203 1634.36 C 306.546 1626.95 296.683 1615.16 289.319 1609.12 L 288.173 1608.2 C 327.894 1614.43 367.368 1616.87 407.488 1618.29 C 464.042 1620.31 518.586 1621.26 574.644 1612.94 C 590.245 1610.69 605.713 1607.6 620.978 1603.66 C 659.724 1593.44 663.467 1591.11 703.329 1592.74 C 822.155 1597.61 954.068 1542.19 1029.15 1449.02 C 1085.32 1379.32 1116.59 1276.91 1112.91 1187.76 C 1111.91 1162.37 1107.12 1140.17 1104.37 1115.25 C 1169.95 1082.32 1236.96 1036.55 1289 984.56 C 1386.89 886.779 1418.16 750.321 1580 744.468 z M 1107.89 1117.54 L 1107.99 1118.95 C 1109.33 1136.75 1115.58 1158.76 1115.9 1175.89 C 1116.22 1192.87 1116.98 1218.2 1115.46 1234.71 C 1107.41 1319.33 1073.87 1399.51 1019.28 1464.65 C 998.597 1489.08 980.566 1502.63 953.615 1520.49 C 935.46 1532.51 915.623 1545.78 895.624 1555.07 C 849.77 1576.35 797.739 1590.42 747.482 1595.56 C 720.813 1598.29 684.092 1593.76 657.414 1597.23 C 645.213 1598.82 621.559 1607.82 607.99 1610.07 C 589.987 1613.29 571.892 1616.68 553.815 1619.42 C 544.977 1620.76 534.564 1619.77 525.766 1621.01 C 494.857 1625.38 463.595 1624.28 432.469 1623.71 C 421.59 1623.51 409.496 1620.69 398.46 1620.53 C 385.146 1619.76 368.048 1620.83 355.566 1619.74 C 335.518 1617.97 326.012 1615.73 305.409 1616.6 C 311.995 1633.77 330.209 1647.31 343.035 1660.71 C 391.687 1711.54 449.948 1754.6 513.723 1784.51 C 528.491 1791.44 544.669 1797.08 559.733 1803.32 C 609.331 1819.85 660.958 1829.5 713.176 1832.02 C 728.14 1832.72 743.581 1831.55 758.492 1832.36 C 944.222 1842.38 1135.25 1761.03 1271.89 1638.05 C 1282.17 1628.79 1291.83 1618.85 1301.58 1609.13 C 1336.07 1575.43 1367.69 1538.92 1396.13 1499.98 C 1462.7 1409.31 1518.5 1286.6 1553.59 1182.39 C 1595.97 1056.51 1615.67 933.165 1760.68 890.104 C 1766.51 888.374 1794.29 881.072 1796.4 877.311 C 1794.01 860.107 1766.38 844.1 1754.91 832.517 C 1730.19 807.541 1709.22 786.786 1677.84 770.189 C 1637.55 748.874 1604.86 746.436 1560.57 748.409 C 1510.43 751.01 1452.04 783.827 1420.36 821.845 C 1371.47 880.507 1330.77 950.213 1274.88 1002.94 C 1242.74 1033.27 1201.99 1060.47 1164.79 1084.05 C 1149.31 1093.68 1120.8 1107.61 1107.89 1117.54 z"/>
<path transform="translate(0,0)" fill="rgb(0,0,0)" d="M 1863.25 937.413 C 1889.09 934.704 1916.7 936.717 1942.74 937.391 C 1941.94 965.056 1942.88 992.809 1942.07 1020.52 C 1940.59 1074.16 1934.81 1127.59 1924.81 1180.31 C 1876.57 1427.08 1731.05 1644.06 1521.06 1782.35 C 1318 1920.85 1067.45 1971.09 826.694 1921.6 C 807.611 1917.46 788.565 1913.14 769.558 1908.66 C 756.229 1905.58 741.093 1903.25 728.595 1897.65 L 729.795 1897.71 C 762.704 1898.96 788.137 1906.34 822.538 1903.67 C 904.814 1897.28 979.707 1879.12 1056.61 1849.57 C 1318.34 1748.98 1487.07 1540.91 1587.56 1284.65 C 1599.64 1253.71 1610.92 1222.47 1621.41 1190.95 C 1640.62 1132.16 1655.44 1061.34 1696.35 1013.94 C 1739.08 964.432 1799.28 942.094 1863.25 937.413 z M 831.607 1904.98 C 831.971 1909.49 831.569 1915.28 835.289 1918.46 C 843.874 1925.79 906.167 1932.46 918.946 1932.43 C 931.581 1933.25 944.145 1935.3 956.75 1935.96 C 974.736 1936.89 993.068 1936.31 1011.09 1936.32 C 1030.62 1936.34 1050.41 1936.94 1069.9 1935.76 C 1079.28 1935.2 1088.61 1933.64 1097.96 1932.73 C 1291.13 1913.18 1473.33 1833.66 1619.02 1705.33 C 1763.15 1578.79 1857.7 1424.74 1907.56 1239.62 C 1921.87 1186.48 1932.14 1133.22 1935.97 1078.21 C 1936.62 1069 1936.28 1059.73 1936.9 1050.52 C 1937.61 1040.11 1939.36 1029.79 1939.96 1019.38 C 1940.81 1004.58 1940.34 989.539 1940.36 974.715 C 1940.38 963.064 1940.95 951.291 1940.58 939.659 C 1915.94 942.409 1885.19 939.611 1859.63 940.452 C 1817.85 941.233 1764.05 960.322 1730.46 985.178 C 1721.15 992.066 1712.83 1000.61 1704.79 1008.93 C 1672.23 1042.64 1659.16 1083.06 1645.24 1126.53 C 1637.47 1150.81 1629.87 1175.22 1621.77 1199.38 C 1608.61 1237.62 1594.33 1275.47 1578.97 1312.88 C 1573.41 1326.24 1566.6 1339.07 1560.56 1352.22 C 1523.83 1432.36 1480.34 1509.26 1425.74 1578.77 C 1413.37 1594.52 1399.84 1609.02 1386.7 1624.07 C 1341.7 1676.27 1289.97 1722.27 1232.86 1760.85 C 1221.05 1768.82 1208.65 1775.43 1196.5 1782.79 C 1138.59 1817.89 1084.15 1844.54 1019.77 1866.19 C 1004.11 1871.46 988.368 1877.28 972.434 1881.63 C 950.675 1887.58 928.757 1891.73 906.638 1895.98 C 883.573 1900.41 859.444 1904.59 835.928 1904.95 C 834.488 1904.97 833.047 1904.98 831.607 1904.98 z"/>
<path transform="translate(0,0)" fill="rgb(0,0,0)" d="M 72.2597 1042.5 C 72.5528 1042.59 72.8622 1042.64 73.139 1042.78 C 74.6166 1043.49 148.975 1151.49 152.88 1160.67 C 164.296 1187.52 170.629 1215.79 183.185 1242.38 C 230.735 1343.07 310.867 1430.49 401.907 1493.56 C 426.088 1510.31 451.541 1524.38 476.63 1539.61 C 481.023 1542.28 487.559 1545.47 488.8 1550.61 C 428.394 1555.1 367.74 1548.65 307.582 1543.97 C 285.097 1542.22 261.688 1542.23 239.445 1538.71 C 238.77 1538.12 238.105 1537.51 237.449 1536.9 C 215.961 1516.73 200.002 1486.1 185.522 1460.63 C 125.726 1354.29 88.257 1236.87 75.4064 1115.54 C 73.004 1091.28 72.807 1066.86 72.2597 1042.5 z M 242.676 1535.73 C 256.8 1536.48 270.641 1538.61 284.7 1539.73 C 309.58 1541.72 334.595 1542.91 359.487 1544.97 C 369.054 1545.77 378.568 1547.37 388.147 1547.99 C 409.032 1549.35 447.134 1549.66 467.665 1547.46 C 468.005 1543.27 468.448 1540.56 465.443 1537.19 C 458.695 1529.63 447.399 1525.81 438.766 1520.69 C 433.531 1517.58 428.724 1513.79 423.548 1510.58 C 415.413 1505.54 406.822 1500.98 399.051 1495.39 C 381.076 1482.47 362.267 1469.1 345.463 1454.71 C 333.554 1444.52 322.671 1432.85 311.578 1421.78 C 271.979 1382.25 246.049 1352.69 216.078 1305.41 C 211.383 1298 206.187 1290.77 201.868 1283.15 C 189.334 1261.04 176.82 1237.5 168.088 1213.61 C 161.154 1194.64 156.605 1173.38 147.559 1155.36 C 142.544 1145.38 133.767 1135.71 127.261 1126.53 C 116.103 1110.52 105.325 1094.25 94.9384 1077.73 C 92.7191 1074.17 90.2923 1069.07 87.3916 1066.11 C 85.5828 1064.27 83.1159 1064 80.6811 1063.91 C 79.4109 1063.86 78.1399 1063.84 76.869 1063.85 C 70.3082 1146.95 117.506 1312.23 151.921 1390.19 C 165.078 1419.99 181.096 1447.19 197.74 1475.03 C 207.172 1490.81 215.621 1507.17 227.655 1521.24 C 232.133 1526.47 237.386 1531.33 242.676 1535.73 z"/>
</g></svg></svg></svg>