<svg width="2048" height="2048" viewBox="0 0 1024 1024" xmlns="http://www.w3.org/2000/svg" preserveAspectRatio="xMidYMid meet"><svg x="196" y="589" width="637" height="210" xmlns="http://www.w3.org/2000/svg" preserveAspectRatio="none"><svg version="1.1" xmlns="http://www.w3.org/2000/svg" style="display: block;" width="637" height="210" viewBox="315.07 106.31 1418.35 468.24" preserveAspectRatio="none"><g id="svg-group-cf7ccfa8-8e35-494d-9d5a-d101a291d097">
<path transform="translate(0,0)" fill="rgba(60, 60, 60, 1)" d="M 1044.2 108.26 C 1098.66 106.309 1144.48 148.696 1146.77 203.147 C 1149.06 257.598 1106.96 303.682 1052.53 306.31 C 997.61 308.961 951.03 266.406 948.72 211.475 C 946.41 156.543 989.253 110.229 1044.2 108.26 z M 1050.22 264.828 C 1067.38 262.843 1074.9 259.991 1086.99 246.579 C 1108.91 222.27 1104.68 181.215 1080.48 160.352 C 1074.14 154.882 1055.78 148.183 1047.3 149.405 C 1008.92 154.117 989.855 180.312 995.182 218.742 C 999.403 249.198 1020.36 264.339 1050.22 264.828 z"/>
<path transform="translate(0,0)" fill="rgba(60, 60, 60, 1)" d="M 879.524 375.066 C 933.894 373.315 979.439 415.87 981.377 470.233 C 983.315 524.597 940.917 570.287 886.56 572.412 C 831.939 574.546 785.978 531.897 784.031 477.269 C 782.083 422.641 824.89 376.827 879.524 375.066 z M 889.631 530.658 C 905.426 527.414 919.271 517.994 928.087 504.492 C 944.302 479.337 935.196 441.922 910.819 424.113 C 900.912 416.875 886.62 416.586 874.654 417.221 C 840.823 424.456 822.715 453.753 829.926 487.455 C 833.302 502.506 842.518 515.6 855.548 523.857 C 865.893 530.484 877.571 531.899 889.631 530.658 z"/>
<path transform="translate(0,0)" fill="rgba(60, 60, 60, 1)" d="M 322.103 127.956 C 322.179 120.309 328.532 113.838 336.131 113.628 C 383.193 112.327 438.127 107.287 473.467 145.474 C 507.205 181.929 501.29 244.278 466.17 277.314 C 441.042 300.812 405.977 303.437 373.495 301.964 C 357.145 301.146 336.301 307.491 324.448 293.812 C 323.573 292.8 322.709 291.779 321.857 290.747 C 321.286 254.093 321.008 217.434 321.021 180.775 C 320.99 170.444 320.376 139.73 321.923 131.567 L 322.103 127.956 z M 367.473 261.726 C 391.02 260.398 415.743 263.193 433.548 247.219 C 461.444 217.492 454.515 187.334 425.939 161.917 C 413.933 151.239 382.223 155.101 367.336 153.761 L 367.473 261.726 z"/>
<path transform="translate(0,0)" fill="rgba(121, 120, 125, 1)" d="M 322.103 127.956 L 323.554 127.723 C 324.55 133.394 323.794 158.54 323.957 165.7 C 324.723 199.331 322.98 234.664 323.94 268.185 L 323.136 267.785 C 321.923 259.766 322.296 243.703 322.269 235.172 L 322.122 165.469 C 322.111 157.686 322.622 138.206 321.923 131.567 L 322.103 127.956 z"/>
<path transform="translate(0,0)" fill="rgba(60, 60, 60, 1)" d="M 626.63 379.362 C 635.138 378.83 640.713 379.484 648.915 380.819 C 663.533 395.669 681.484 469.942 693.88 495.867 C 700.876 487.299 702.376 479.346 705.941 468.794 C 711.036 453.882 715.943 438.905 720.661 423.869 C 725.641 408.01 728.253 391.706 740.566 380.114 C 752.067 378.854 756.714 378.822 768.133 381.057 C 770.55 384.265 772.646 388.77 774.507 392.404 C 767.847 408.555 761.533 427.791 755.647 444.432 L 729.582 517.215 C 724.507 531.479 720.065 548.8 712.877 561.838 C 706.271 573.819 686.962 568.531 677.979 562.594 C 671.823 552.833 667.02 536.778 663.071 525.536 C 655.902 505.127 649.547 485.255 641.554 465.1 C 639.671 460.545 636.786 456.781 633.961 452.745 C 628.705 461.497 624.883 473.231 621.557 482.911 L 605.471 529.383 C 602.333 538.404 598.752 550.366 594.475 558.376 C 586.855 572.645 560.562 572.454 554.321 556.464 C 550.235 545.995 547.297 536.707 543.836 526.405 L 528.16 480.855 C 519.447 454.731 510.793 428.531 501.759 402.397 C 493.806 379.388 520.128 375.42 533.453 382.617 C 549.585 391.33 566.349 485.91 576.889 492.056 C 586.771 485.924 606.136 391.124 622.042 380.881 C 622.85 380.361 625.663 379.612 626.63 379.362 z"/>
<path transform="translate(0,0)" fill="rgba(60, 60, 60, 1)" d="M 1032.6 380.38 C 1039.72 379.1 1056.54 381.533 1064.99 381.58 C 1081.49 381.808 1097.59 380.656 1114.09 382.012 C 1151.99 385.125 1174.24 412.827 1169.42 450.513 C 1165.22 483.359 1154.2 484.204 1132.41 501.767 C 1141.89 517.512 1153.95 532.132 1164.13 547.64 C 1180.19 572.108 1144 570.395 1130.83 565.995 C 1115.75 555.626 1101.7 524.17 1084.64 507.02 C 1076.3 506.908 1058.56 504.122 1055.62 513.92 C 1048.92 536.273 1070.15 573.601 1029.69 568.034 C 1022.3 567.017 1021.39 567.128 1014.61 563.156 C 1013.54 550.387 1013.9 536.378 1013.98 523.497 C 1014.24 478.775 1013.46 433.998 1014.19 389.292 C 1014.33 380.946 1026.46 381.046 1032.6 380.38 z M 1084.12 465.226 C 1093.8 465.51 1103.73 466.333 1113.14 464.022 C 1118.6 458.678 1121.55 454.591 1126.09 448.54 C 1125.89 444.479 1125.77 439.434 1125.33 435.483 C 1122.67 431.9 1120.16 428.605 1117.83 424.785 C 1112.38 422.615 1106.02 419.992 1100.01 420.499 C 1091.84 420.685 1063.32 419.566 1058.33 422.372 C 1054.68 428.614 1054.8 459.43 1059.15 464.592 C 1063.62 466.184 1078.32 465.327 1084.12 465.226 z"/>
<path transform="translate(0,0)" fill="rgba(60, 60, 60, 1)" d="M 1263.08 107.392 C 1282.66 106.351 1356.16 118.684 1334.4 151.656 C 1329.47 159.122 1324.77 162.132 1316.14 163.785 C 1303.34 159.837 1288.6 150.66 1275.19 149.296 C 1260.1 147.672 1245 152.235 1233.33 161.943 C 1194.81 193.69 1212.89 262.093 1264 266.145 C 1278.3 267.279 1295 263.018 1306.06 253.685 C 1305.48 213.11 1294.22 239.078 1263.05 223.951 C 1259.16 191.263 1265.52 191.594 1295.5 191.941 C 1354.45 191.135 1344.62 193.539 1346.76 250.999 C 1346.99 257.157 1347.12 271.026 1343.85 275.795 C 1333.57 290.796 1309.7 299.679 1292.33 303.288 C 1263.61 309.399 1233.64 303.889 1208.97 287.964 C 1165.02 258.979 1157.94 193.425 1186.03 151.213 C 1205.75 121.568 1230.19 114.177 1263.08 107.392 z"/>
<path transform="translate(0,0)" fill="rgba(60, 60, 60, 1)" d="M 1597.46 113.3 C 1611.14 112.782 1709.24 111.284 1716.37 114.496 C 1719.8 116.041 1722.39 121.512 1723.54 124.918 C 1725.66 131.169 1726.07 139.735 1723 145.731 C 1721.33 148.996 1718.44 151.356 1714.96 152.483 C 1698.52 157.816 1644.52 148.412 1629.15 153.922 C 1625.96 155.066 1623.39 157.132 1621.98 160.256 C 1618.28 168.412 1621.52 181.741 1624.72 189.717 C 1627.39 189.141 1638.04 187.32 1642.74 187.616 C 1659.78 188.69 1694.27 183.439 1708.39 192.166 C 1712.64 195.822 1712.75 202.347 1713.2 206.836 C 1716.19 236.885 1679.55 225.011 1660.85 226.006 C 1650.65 226.548 1635.93 226.773 1624.15 226.403 C 1623.76 227.455 1623.4 228.516 1623.06 229.586 C 1620.53 237.584 1616.46 264.236 1630.73 263.199 C 1655.65 261.388 1680.97 261.928 1705.97 262.309 C 1710.83 262.383 1721.75 265.173 1724.1 270.71 C 1727.98 282.817 1728.12 304.649 1709.22 302.154 C 1684.63 298.908 1603.84 307.059 1584.89 299.811 C 1582.9 298.177 1581.57 294.346 1581.51 291.818 C 1580.03 237.715 1580.96 183.325 1581 129.166 C 1581 117.255 1586.63 114.98 1597.46 113.3 z"/>
<path transform="translate(0,0)" fill="rgba(60, 60, 60, 1)" d="M 677.581 111.223 C 678.07 111.176 678.559 111.134 679.05 111.099 C 701.519 109.398 709.129 109.315 718.441 131.681 C 739.142 181.401 762.409 230.064 783.087 279.788 C 790.339 300.147 784.193 301.98 767.515 302.289 C 734.329 302.904 745.581 275.793 726.741 261.15 C 725.744 260.375 707.191 261.058 703.178 261.117 C 683.426 261.312 671.296 259.454 650.549 261.261 C 643.174 273.629 637.72 296.818 623.886 300.978 C 614.132 303.91 597.131 302.407 593.715 290.524 C 596.862 279.767 605.594 262.179 610.531 251.41 L 637.434 191.488 C 647.571 168.31 657.197 144.912 666.874 121.555 C 668.728 117.082 673.526 113.527 677.581 111.223 z M 690.491 219.778 L 711.076 219.771 C 711.502 218.59 711.669 216.371 711.016 215.317 C 702.607 201.759 697.989 183.254 690.687 169.935 C 686.119 176.524 669.514 211.577 672.067 218.278 C 674.77 219.607 686.542 219.564 690.491 219.778 z"/>
<path transform="translate(0,0)" fill="rgba(121, 120, 125, 1)" d="M 711.076 219.771 C 712.417 219.828 712.343 219.822 713.433 220.624 L 712.284 221.766 C 701.248 223.548 680.494 222.761 668.644 222.437 L 667.42 221.116 C 670.257 217.999 683.032 220.229 690.491 219.778 L 711.076 219.771 z"/>
<path transform="translate(0,0)" fill="rgba(60, 60, 60, 1)" d="M 1241.56 514.367 C 1241.64 525.763 1244.47 556.903 1235.69 564.628 C 1231.59 568.239 1207.24 568.438 1201.16 560.724 C 1199.89 557.231 1199.27 552.199 1199.28 548.481 C 1199.39 495.954 1198.82 443.265 1199.45 390.796 C 1199.98 378.42 1218.8 378.32 1227.78 380.054 C 1254.93 385.303 1234.4 440.182 1243.82 454.578 C 1244.57 454.987 1245.33 455.408 1246.12 455.842 C 1270.59 431.946 1293.1 404.288 1319.31 382.286 C 1329.49 373.74 1371.81 380.847 1355.98 398.559 C 1336.07 420.822 1314.28 440.5 1294.63 463.321 C 1307.67 482.57 1357.74 538.77 1360.51 556.729 C 1360.93 559.451 1360.76 562.54 1359.03 564.814 C 1357.63 566.651 1355.48 567.371 1353.27 567.628 C 1344.39 568.664 1334.04 569.7 1325.61 566.071 C 1310.39 559.513 1280.16 507.337 1261.69 492.813 C 1258.62 496.898 1250.23 505.5 1246.12 508.794 L 1241.56 514.367 z"/>
<path transform="translate(0,0)" fill="rgba(67, 67, 70, 1)" d="M 1246.12 508.794 C 1245.64 503.909 1255.95 493.247 1261.69 492.813 C 1258.62 496.898 1250.23 505.5 1246.12 508.794 z"/>
<path transform="translate(0,0)" fill="rgba(60, 60, 60, 1)" d="M 1447.86 376.406 C 1463.01 372.773 1501.87 385.105 1512.02 397.487 C 1516.39 402.826 1515.16 409.024 1514.71 415.241 C 1506.23 427.988 1503.35 435.863 1486.52 426.934 C 1468.8 417.532 1428.88 401.801 1422.74 433.005 C 1420.53 444.236 1448.42 451.607 1456.48 453.47 C 1486.79 459.866 1527.53 477.346 1523.54 515.374 C 1518.53 563.148 1481.4 571.363 1442.54 570.753 C 1417.98 568.968 1391.88 561.131 1374.98 542.37 C 1374.83 535.471 1375.46 526.211 1380.26 520.81 C 1393.75 505.623 1414.52 523.793 1428.74 529.136 C 1438.03 532.581 1447.96 533.952 1457.84 533.153 C 1467.02 532.396 1482.5 526.422 1479.79 514.94 C 1475.74 497.74 1438.71 492.79 1423.34 488.584 C 1380.36 476.824 1367.79 434.514 1392.01 399.003 C 1403.14 382.948 1427.73 378.176 1447.86 376.406 z"/>
<path transform="translate(0,0)" fill="rgba(60, 60, 60, 1)" d="M 1387.56 113.155 C 1396.55 112.832 1419.67 109.745 1419.97 122.726 C 1420.74 154.951 1419.71 187.323 1420.21 219.557 C 1420.4 232.293 1423.97 245.705 1433.7 254.426 C 1446.57 266.214 1461.08 264.685 1477.24 264.077 C 1483.58 258.396 1493 251.225 1496.67 243.431 C 1507.13 221.184 1497.49 123.041 1503.72 116.721 C 1506.61 113.789 1511.69 113.315 1515.59 113.141 C 1521.73 112.867 1533.29 111.595 1538 116.148 C 1545.1 123.001 1542.29 154.027 1542.19 164.514 C 1542.1 170.298 1542.65 176.379 1543.05 182.18 C 1545.41 216.43 1544.96 266.122 1515.23 288.992 C 1474.05 319.464 1392.31 306.957 1381.7 249.773 C 1379.33 236.652 1379.37 223.1 1379.81 209.673 C 1380.74 181.249 1378.86 152.497 1380.1 124.172 C 1380.35 118.555 1383.41 116.25 1387.56 113.155 z"/>
<path transform="translate(0,0)" fill="rgba(60, 60, 60, 1)" d="M 818.522 113.165 C 824.196 113.026 829.891 112.87 835.568 112.915 C 840.773 112.956 846.882 113.093 850.035 117.863 C 859.561 132.272 847.278 252.385 856.256 261.102 C 857.679 262.484 858.837 262.662 860.769 262.823 C 866.144 263.271 872.097 262.319 877.529 262.199 C 891.888 261.883 906.331 261.56 920.691 261.664 C 927.641 261.714 935.465 262.151 940.581 267.551 C 945.248 272.478 945.311 278.712 945.169 285.064 C 945.014 291.939 944.15 297.076 938.938 302.033 C 909.358 302.823 879.253 301.654 849.622 302.194 C 834.542 302.468 824.499 303.741 811.256 295.639 C 808.915 238.611 812.083 179.186 811.164 121.943 C 811.106 118.286 815.824 115.208 818.522 113.165 z"/>
<path transform="translate(0,0)" fill="rgba(60, 60, 60, 1)" d="M 533.36 113.351 C 544.199 112.779 552.409 112.622 563.088 114.401 C 565.814 118.431 567.941 121.723 568.238 126.779 C 569.17 154.036 569.473 182.089 568.933 209.391 C 568.384 237.221 570.361 268.144 567.961 295.598 L 559.788 301.251 C 550.624 303.788 538.368 301.369 529.247 299.194 C 527.835 287.734 528.441 265.272 528.449 252.78 L 528.668 167.765 C 528.707 153.015 522.346 122.878 533.36 113.351 z"/>
</g></svg></svg><svg x="326" y="136" width="411" height="411" xmlns="http://www.w3.org/2000/svg" preserveAspectRatio="none"><svg version="1.1" xmlns="http://www.w3.org/2000/svg" style="display: block;" width="411" height="411" viewBox="-5.04 -2.52 2009.04 2009.04" preserveAspectRatio="none"><g id="svg-group-2e656803-757d-4d31-b190-4b2adbdf9e7e">
<defs>
	<linearGradient id="Gradient1" gradientUnits="userSpaceOnUse" x1="347.099" y1="344.315" x2="339.417" y2="338.102">
		<stop class="stop0" offset="0" stop-opacity="1" stop-color="rgba(186, 176, 183, 1)"/>
		<stop class="stop1" offset="1" stop-opacity="1" stop-color="rgba(163, 172, 171, 1)"/>
	</linearGradient>
	<linearGradient id="Gradient2" gradientUnits="userSpaceOnUse" x1="86.8293" y1="427.259" x2="74.1874" y2="425.612">
		<stop class="stop0" offset="0" stop-opacity="1" stop-color="rgba(119, 119, 127, 1)"/>
		<stop class="stop1" offset="1" stop-opacity="1" stop-color="rgba(144, 142, 150, 1)"/>
	</linearGradient>
	<linearGradient id="Gradient3" gradientUnits="userSpaceOnUse" x1="769.36" y1="1830.74" x2="769.646" y2="1824.13">
		<stop class="stop0" offset="0" stop-opacity="1" stop-color="rgba(151, 149, 145, 1)"/>
		<stop class="stop1" offset="1" stop-opacity="1" stop-color="rgba(126, 122, 124, 1)"/>
	</linearGradient>
	<linearGradient id="Gradient4" gradientUnits="userSpaceOnUse" x1="1652.78" y1="1624.23" x2="1674.87" y2="1647.99">
		<stop class="stop0" offset="0" stop-opacity="1" stop-color="rgba(167, 166, 156, 1)"/>
		<stop class="stop1" offset="1" stop-opacity="1" stop-color="rgba(196, 199, 197, 1)"/>
	</linearGradient>
</defs>
<path transform="translate(0,0)" fill="rgba(58, 58, 58, 1)" d="M 932.959 0 L 1070.67 0 L 1074.07 4.8662 C 1081.89 8.78007 1116.07 10.3263 1127.59 11.8657 C 1227.98 25.2779 1327.15 51.3507 1419.14 94.1898 C 1433.5 100.879 1448.53 106.662 1462.74 113.756 C 1511.83 141.075 1562.67 171.639 1607.34 205.667 C 1628.23 221.576 1651.8 241.25 1671.74 258.308 C 1684.85 269.518 1694.76 280.679 1709.15 292.306 C 1716.08 297.682 1722.29 303.914 1727.65 310.854 C 1746.05 332.079 1766.01 353.273 1783.36 375.354 C 1885.31 504.746 1954.78 656.676 1985.97 818.428 C 1991.62 848.326 1993.86 870.746 1997.41 900.709 C 2000.08 902.68 2000.96 903.619 2004 904.942 L 2004 921.339 L 2004 1087.1 C 2001.83 1088.31 2000.06 1089.16 1998.17 1090.8 C 1996.39 1096.18 1995.5 1101.89 1994.89 1107.51 C 1992.9 1125.83 1989.95 1143.77 1986.8 1161.92 C 1979.24 1204.99 1969.18 1247.59 1956.66 1289.49 C 1908.36 1449.29 1821.84 1594.92 1704.6 1713.77 C 1694.19 1724.19 1682.52 1736.16 1671.69 1745.97 C 1662.67 1754.16 1650.42 1762.92 1640.77 1770.72 C 1586.09 1815.14 1527.23 1854.15 1465.01 1887.18 C 1450.53 1894.99 1433.27 1902.46 1418.14 1909.3 C 1339.58 1945.41 1256.73 1971.37 1171.61 1986.55 C 1150.59 1990.09 1126.46 1992.6 1105.58 1997.34 C 1103.35 1997.85 1099.32 2002.1 1097.77 2004 L 897.751 2004 C 890.202 1992.35 873.244 1991.78 860.486 1989.94 C 790.583 1979.83 720.462 1960.01 654.778 1934.17 C 642.083 1929.18 628.96 1925.34 616.398 1920.17 C 516.826 1878.74 423.989 1822.69 340.949 1753.87 C 322.055 1738.16 304.403 1723.83 287.541 1705.88 C 283.293 1701.36 276.109 1694.91 272.733 1690.01 C 262.59 1681.39 252.134 1669.6 244.048 1659.13 C 240.771 1656.88 230.526 1642.7 227.109 1638.89 C 188.222 1595.45 157.827 1546.22 127.423 1496.43 C 117.14 1482.79 89.0807 1429.6 85.7141 1413.34 C 52.1205 1334.53 28.4286 1251.85 15.1804 1167.21 C 11.8323 1146.91 10.4531 1126.29 8.62972 1105.81 C 8.22752 1101.29 7.90535 1096.79 6.93964 1092.35 C 4.69653 1089.82 2.61596 1088.3 0 1086.21 L 0 1074.55 L 0 926.713 L 0 908.939 C 2.56802 907.723 4.58896 906.124 6.94135 904.494 C 8.73537 899.778 8.8082 879.402 9.46283 872.612 C 11.4864 851.622 12.6423 830.43 15.8769 809.547 C 20.2701 781.216 25.6822 753.053 32.1026 725.111 C 36.214 707.872 46.9799 676.503 47.1124 659.849 C 47.2108 647.478 38.0889 615.447 34.8171 602.225 C 30.4229 583.848 26.5113 565.359 23.0863 546.777 C -5.03719 386.911 23.1888 218.045 99.3478 74.2356 C 111.789 52.323 124.997 6.24392 159.359 19.6425 C 177.159 26.5837 176.214 44.1678 175.884 60.319 C 174.007 152.203 182.985 245.199 216.602 331.428 C 221.364 343.642 227.586 355.04 232.587 367.141 C 237.514 359.602 243.462 354.731 248.965 348.069 C 258.257 336.819 267.881 325.96 277.303 314.866 C 284.63 304.145 310.372 278.617 320.96 270.369 C 320.996 270.328 321.032 270.286 321.068 270.245 C 338.113 256.038 354.674 241.074 371.854 226.92 C 378.316 221.595 385.992 217.133 392.348 211.999 C 407.913 199.426 424.148 188.069 439.985 175.769 C 447.131 170.219 463.219 162.075 471.935 156.596 C 571.356 92.9296 681.859 48.5207 797.687 25.6832 C 817.501 21.5927 840.896 16.6201 860.685 13.8086 C 881.873 10.7982 906.97 10.5092 928.013 6.36701 L 929.32 6.10346 C 930.863 4.12852 931.782 2.19941 932.959 0 z M 311.143 376.569 C 306.59 380.22 305.235 381.894 301.573 386.22 C 294.101 399.31 287.477 408.223 275.365 417.858 C 269.692 423.196 268.108 425.042 265.644 432.433 C 269.869 454.159 337.429 551.46 355.999 564.325 C 367.569 572.161 438.274 643.025 446.735 654.655 C 458.58 669.626 489.022 689.969 505.272 701.08 C 581.115 752.942 663.718 786.744 750.495 815.733 C 787.294 828.026 825.914 840.688 861.812 855.457 C 896.788 869.847 930.776 890.095 962.817 910.176 C 966.44 912.447 969.078 915.336 972.379 917.401 C 985.98 925.124 1008.03 944.678 1017.92 956.903 C 1022.53 962.613 1027.27 970.163 1031.66 975.274 C 1034.51 982.369 1066.66 1036.31 1071.14 1040.38 C 1076.95 1042.5 1080.71 1042.84 1086.76 1041.48 C 1091.06 1039.28 1097.59 1034.65 1102.33 1031.93 C 1126.16 1018.28 1148.91 1002.55 1172.15 987.737 C 1181.23 976.858 1187.57 973.725 1197.27 964.565 C 1238.13 925.98 1275.37 885.488 1307.46 839.259 C 1328.25 809.306 1348.69 779.361 1373.41 752.481 C 1380.7 744.548 1392.78 736.502 1401.68 730.083 C 1410.3 721.482 1441.36 705.983 1453.69 702.645 C 1482.88 688.578 1532.34 680.159 1564.38 673.614 C 1591.53 668.065 1633.2 679.609 1659.35 688.751 C 1688.75 698.906 1716.46 713.389 1741.59 731.72 C 1749.13 737.242 1777.07 761.225 1782.71 762.448 L 1783.21 763.111 C 1791.98 769.569 1832.05 804.522 1836.8 811.81 C 1838.16 813.076 1838.94 813.166 1840.45 814.234 C 1854.88 824.415 1911.11 876.242 1928.77 866.235 C 1930.11 862.596 1928.14 852.465 1927.63 848.411 C 1923.96 819.55 1914.81 792.255 1907.12 764.384 C 1901.55 744.235 1898 723.657 1890.31 703.99 C 1883.3 685.889 1875.57 668.092 1868.19 650.152 C 1866.13 645.131 1867.13 635.697 1864.64 630.463 C 1858.79 618.185 1851.46 605.535 1844.85 593.648 C 1837.21 579.905 1825.35 550.564 1816.74 539.006 C 1818.9 538.346 1818 538.922 1819.48 537.327 C 1816.62 527.662 1807.93 515.721 1802.53 506.914 C 1750.41 421.919 1683.31 347.135 1606.43 283.864 C 1601.51 279.82 1586.69 265.77 1581.25 265.322 C 1571.23 258.56 1559.71 247.953 1549.39 240.486 C 1254.32 27.0211 839.915 11.4657 527.587 196.677 C 515.244 203.996 500.293 215.227 487.586 223.561 C 478.336 231.635 467.52 237.83 457.939 245.584 C 437.25 262.326 415.781 277.734 396.367 296.022 C 391.028 301.051 380.656 305.985 376.885 311.849 C 367.54 322.631 322.106 369.409 311.143 376.569 z M 283.925 895.546 C 287.544 901.485 294.133 901.604 296.959 904.994 C 305.467 915.198 312.765 922.155 323.781 929.777 C 355.744 951.891 388.821 973.44 425.364 987.259 C 446.464 995.239 477.266 1000.26 491.948 1019.15 C 493.642 1034.93 494.608 1045.38 485.523 1059.46 C 427.256 1076.26 315.478 996.775 268.074 965.218 C 265.756 963.675 245.108 950.14 243.888 948.591 C 216.444 913.757 178.867 887.076 152.216 851.245 C 133.544 826.142 112.634 800.978 99.9997 772.234 C 98.4169 768.702 98.3866 767.162 96.2082 763.292 L 95.4868 762.024 C 84.2333 772.99 82.9202 792.739 81.6706 807.731 C 82.2682 816.624 82.2186 821.86 81.8006 830.803 C 80.7157 854.834 82.5731 866.444 88.5427 889.831 C 107.697 964.87 137.655 1038.92 190.055 1097.15 C 190.144 1097.23 190.234 1097.32 190.323 1097.4 C 198.223 1103.95 208.998 1115.62 216.415 1123.26 C 221.501 1132.52 225.868 1140.73 234.792 1147.48 C 257.448 1164.61 280.12 1181.82 303.096 1198.52 C 329.289 1217.96 358.641 1231.39 388.41 1244.44 C 437.73 1266.08 488.825 1273.3 542.25 1273.07 C 578.762 1272.91 617.565 1266.48 644.868 1295.34 C 644.826 1306.86 645.902 1323.61 637.292 1331.84 C 621.656 1346.78 585.125 1347.2 564.39 1346.24 C 498.51 1343.18 427.52 1328.15 366.66 1302.47 C 340.336 1291.36 317.626 1279.13 291.099 1268.88 C 288.278 1272.94 282.101 1280.06 283.414 1283.97 C 288.565 1299.28 308.447 1318.23 319.193 1330.22 C 327.495 1337.83 375.873 1383.91 380.633 1391.75 L 385.839 1394.74 C 390.219 1396.13 425.49 1427 428.752 1431.6 C 480.276 1464.75 529.135 1498.17 591.044 1508.15 C 600.643 1509.7 609.569 1510.75 619.184 1511.97 C 634.64 1513.73 654.813 1512.83 667.357 1514.86 C 688.184 1516.99 710.642 1517.21 731.567 1516.63 C 739.7 1517.1 751.861 1513.85 759.529 1514.4 C 801.638 1517.41 830.652 1503.14 868.064 1484.6 C 915.58 1460.58 957.789 1416.39 987.046 1372.51 C 997.564 1356.74 1005.9 1338.79 1017.7 1321.37 C 1019.22 1315.31 1026.93 1301.25 1029.38 1293.93 C 1039.55 1263.6 1038.46 1243.53 1037.36 1213.29 C 1036.71 1202.7 1036.98 1189.81 1037.43 1179.27 C 1040.95 1184.95 1035.06 1195.17 1040.5 1200.23 C 1042.2 1197.17 1041.88 1185.46 1042.1 1180.88 C 1042.23 1174.33 1039.88 1153.83 1037.45 1148.21 L 1035.9 1148.67 C 1035.29 1133.25 1024.66 1110.68 1019.71 1096.61 L 1019.19 1095.1 C 1020.82 1094.58 1020 1095.04 1021.45 1093.39 C 1021.26 1092.5 1021.06 1091.61 1020.83 1090.73 C 1016.85 1075.48 990.047 1023.93 976.416 1015.9 L 973.317 1017.57 C 973.205 1017.28 973.094 1016.98 972.983 1016.68 C 973.403 1010.48 969.327 1007.34 964.669 1002.92 C 964.316 996.975 940.574 974.448 934.516 972.198 L 934.017 973.069 L 936.661 977.754 C 931.283 972.636 915.454 957.411 909.902 953.458 C 843.176 905.951 753.125 883.09 676.421 856.243 C 608.877 832.579 544.278 801.226 483.897 762.803 C 475.783 757.595 413.809 714.54 411.536 713.768 C 401.629 710.405 399.22 701.813 392.784 694.657 C 389.693 691.22 385.976 688.193 382.495 685.16 C 374.192 677.926 363.248 672.82 355.778 664.995 C 350.492 659.457 348.655 652.292 343.79 647.004 L 341.634 644.618 L 340.697 643.584 C 340.115 638.15 289.412 586.659 284.979 576.66 C 283.704 573.783 271.333 558.384 267.499 557.289 C 265.281 550.233 255.29 538.808 248.367 535.175 L 251.02 534.56 L 251.449 533.359 C 223.045 493.794 201.921 457.074 181.925 412.483 C 180.169 408.568 174.454 395.57 172.355 393.044 L 171.59 398.134 C 149.508 352.763 136.634 304.241 127.212 254.832 C 124.939 242.911 124.39 230.571 121.871 218.785 C 121.383 216.503 120.936 213.214 118.52 212.165 C 116.357 211.225 113.813 211.29 111.78 212.496 C 98.4858 220.385 85.9355 299.867 85.1139 317.936 C 84.2711 336.472 88.2255 355.178 84.3266 373.698 C 84.2693 373.97 84.2036 374.241 84.1422 374.512 L 83.8508 379.456 C 84.1035 406.076 84.1422 432.697 83.9669 459.316 C 83.8932 474.824 83.4661 490.673 84.2481 506.11 C 84.696 514.954 87.4787 525.095 88.1678 533.88 C 94.4352 613.96 125.584 691.602 166.418 760.134 C 180.393 783.588 196.095 806.762 214.964 826.591 C 217.008 828.738 225.18 835.315 226.241 836.88 C 235.74 846.116 278.561 887.291 283.925 895.546 z M 1355.51 894.928 C 1352.9 899.199 1351.74 901.372 1348.32 905.115 C 1318.9 958.946 1258.49 1013.81 1209.77 1050.38 C 1203.61 1054.99 1189.76 1063.85 1182.79 1066.48 C 1174.37 1070.84 1100.97 1108.45 1100.3 1113.92 C 1098.23 1130.66 1111.81 1176.51 1111.27 1199.68 C 1110.07 1250.63 1092.72 1307.09 1075.1 1354.8 C 1069.81 1369.14 1059.61 1386.8 1053.07 1400.85 C 1050.28 1406.84 1039.8 1427.28 1035.7 1430.36 C 1017.48 1462.15 992.454 1489.51 962.416 1510.49 C 958.019 1513.61 949.786 1519.43 945.275 1521.56 C 887.661 1553.85 820.799 1581.53 754.243 1586.05 C 726.24 1587.95 695.966 1584.31 667.626 1587.67 C 645.149 1590.35 625.7 1598.1 603.328 1602.64 C 564.65 1610.51 524.553 1614.33 485.246 1617.56 C 457.891 1619.82 431.124 1615.97 404.039 1613.75 C 371.91 1610.9 339.69 1609.2 307.44 1608.65 C 292.836 1617.07 317.2 1634.86 322.908 1644.63 C 325.077 1646.44 329.82 1650.93 331.168 1653.26 C 337.881 1660.03 364.854 1686.12 368.842 1691.85 C 371.529 1693.04 374.208 1694.25 376.881 1695.47 C 387.222 1705.33 405.722 1718.48 412.915 1726.61 C 419.841 1733.82 430.563 1740.58 439.031 1746.35 C 484.231 1777.54 534.695 1800.31 587.991 1813.56 C 604.219 1817.56 620.789 1816.61 633.268 1820.08 L 750.527 1825.11 C 778.118 1824.38 808.748 1824.74 836.41 1825.25 C 848.341 1825.18 860.012 1825.61 872.048 1824.74 C 918.589 1821.36 963.751 1807.78 1007.26 1791.62 C 1021.61 1786.29 1046.8 1772.89 1059.54 1769.02 L 1061.07 1768.57 C 1090.13 1755.14 1117.59 1741.06 1144.2 1723.33 C 1154.9 1716.21 1165.43 1711.73 1176.07 1703.63 C 1202.39 1682.24 1231.42 1664.02 1256.18 1640.03 C 1259.87 1636.45 1264.66 1633.29 1268.37 1629.51 C 1292.3 1604.61 1318.17 1581.02 1341.74 1555.85 C 1351.88 1545.01 1362.55 1528.91 1372.34 1516.87 C 1386.67 1498.88 1398.63 1478.19 1412.01 1459.51 C 1445.61 1412.6 1469.55 1361.61 1495.68 1310.34 C 1499.03 1302.81 1503.7 1294.76 1507.29 1287.25 C 1529.67 1240.49 1547.02 1193.23 1562.41 1144.23 C 1568.01 1126.37 1598.04 1021.05 1606.51 1011.03 C 1611.85 998.926 1619.25 988.46 1626.35 977.677 C 1655.23 933.775 1685.74 917.756 1732.33 898.544 C 1739.18 893.473 1789.5 879.392 1797.97 870.374 L 1797.61 868.379 C 1793.67 862.887 1787.93 861.247 1782.02 858.741 C 1760.87 841.212 1739.52 814 1718.13 797.004 C 1715.21 794.686 1714.87 795.781 1709.73 790.754 C 1707.48 788.745 1705.2 785.467 1703.69 784.147 C 1643.37 731.428 1555.79 732.119 1484.42 760.481 C 1459.4 770.539 1421.27 803.293 1408.57 825.329 C 1405.82 832.152 1362.53 886.784 1355.51 894.928 z M 1521.81 1772.17 C 1554.94 1746.06 1589.42 1723.08 1620.24 1693.65 C 1636.28 1678.33 1651.41 1661.38 1667.52 1646.21 C 1715.38 1601.13 1755.98 1546.16 1793.33 1492.14 C 1796.02 1486.42 1803.81 1475.61 1807.24 1469.3 C 1815.43 1454.23 1823.4 1440.52 1832.61 1426.09 C 1839.83 1414.04 1841.99 1401.44 1847.84 1390.06 C 1857.74 1370.04 1868.79 1349.18 1876.96 1328.37 C 1909.84 1244.92 1927.72 1159.5 1932.65 1070.04 C 1934.21 1041.83 1929.51 1007.83 1932.98 981.924 L 1933.04 980.61 C 1932.13 966.971 1935.54 947.288 1938.44 933.594 C 1923.63 932.39 1906.49 934.125 1891.73 934.351 C 1849.39 935.001 1774.01 942.953 1740.1 969.391 L 1676.32 1029.49 C 1669.68 1039.82 1660.8 1049.3 1655.8 1059.96 C 1650.98 1070.22 1646.87 1083.65 1643.31 1094.57 C 1636.05 1117 1629.1 1139.52 1622.45 1162.13 C 1579.93 1303.69 1523.74 1421.06 1442.53 1544.05 C 1431.05 1563.92 1391.7 1614.64 1372.38 1626.61 C 1371.75 1627.32 1370.51 1628.85 1369.81 1629.34 C 1367.1 1633.08 1366.22 1634.51 1364.32 1638.01 C 1358.05 1649.6 1328.3 1680.09 1317.23 1684.67 C 1313.96 1687.1 1299.25 1699.34 1297.34 1700.3 C 1288.06 1714.96 1242.49 1751.34 1227.3 1756.65 C 1221.44 1762.41 1197.65 1774.47 1188.57 1779.56 C 1077.58 1841.8 954.507 1890.25 826.522 1899.22 C 825.629 1899.28 824.612 1899.09 823.721 1898.95 L 824.007 1914.78 C 824.777 1915.59 825.548 1916.4 826.318 1917.2 C 845.916 1921.67 889.394 1924.12 907.066 1927.18 C 960.294 1930.75 1004.81 1927.77 1056.45 1929.15 C 1073.36 1928.34 1097.72 1930.15 1113.83 1928.54 C 1176.08 1922.3 1254.96 1905.62 1313.32 1883.02 C 1333.13 1875.22 1352.72 1866.89 1372.08 1858.02 C 1382.65 1853.24 1395.28 1846.79 1405.94 1842.88 L 1407.33 1842.38 C 1421.54 1831.2 1435.76 1825.74 1451.08 1816.86 C 1475.31 1803.01 1498.91 1788.1 1521.81 1772.17 z M 75.9222 1063.19 C 73.3845 1079.89 76.3168 1114.37 76.0183 1134.77 C 77.377 1141.49 79.4311 1150.01 80.0829 1156.69 C 82.5326 1181.8 86.0219 1206.68 91.6082 1231.35 C 111.039 1317.06 143.618 1399.24 188.19 1474.98 C 201.248 1497.58 213.073 1518.92 231.969 1537.31 C 244.934 1534.76 249.938 1533.1 263.043 1533.8 C 289.822 1533.24 330.956 1539.43 359.144 1540.48 C 370.443 1540.91 407.828 1540.43 415.252 1541.88 C 431.85 1541.81 450.375 1545.74 466.282 1543.62 C 468.389 1541.2 470.074 1539.89 470.431 1536.77 C 467.375 1533.12 458.857 1527.95 454.515 1525.38 C 420.231 1505.14 387.386 1482.91 354.86 1459.99 C 353.792 1459.24 351.749 1458.8 350.497 1458.49 C 352.092 1458.19 352.776 1457.98 354.325 1457.52 C 352.507 1455.18 333.655 1438.42 330.763 1436.5 C 314.742 1425.87 289.916 1388.1 275.451 1380.22 C 271.083 1373.77 262.096 1365.29 256.734 1358.5 C 258.039 1355.04 243.328 1336.9 240.41 1333.04 C 208.024 1290.25 187.837 1246.46 168.397 1196.71 L 167.415 1199.01 C 165.412 1197.4 157.624 1173.65 154.884 1168.99 C 150.711 1161.88 144.226 1155.32 141.376 1148.1 C 143.244 1150.35 144.08 1151.21 146.124 1153.16 L 147.115 1152.86 C 137.92 1136.2 125.337 1119.02 115.119 1102.77 C 106.924 1089.74 98.2415 1072.05 89.0769 1060 L 87.7111 1060.05 C 83.7336 1057.32 85.797 1057.8 81.4881 1057.93 C 78.084 1060.06 78.2167 1059.91 75.9222 1063.19 z M 69.0928 1062.29 C 74.6359 1061.81 68.8112 1060.93 75.4089 1058 C 78.265 1057.14 79.9919 1056.44 83.0126 1056.34 L 84.3702 1054.81 C 82.4752 1048.26 77.8895 1038.82 72.0913 1035 L 70.0414 1035.3 C 66.5803 1040.74 68.6593 1055.21 69.0928 1062.29 z"/>
<path transform="translate(0,0)" fill="rgba(199, 201, 198, 1)" d="M 1997.41 900.709 C 2000.08 902.68 2000.96 903.619 2004 904.942 L 2004 921.339 L 2004 1087.1 C 2001.83 1088.31 2000.06 1089.16 1998.17 1090.8 C 1997.2 1088.96 2000.11 1029.24 2000.32 1020.92 C 2000.85 999.746 2000.1 976.705 1999.86 955.432 C 1998.81 948.199 1997.02 907.894 1997.41 900.709 z"/>
<path transform="translate(0,0)" fill="rgba(199, 201, 198, 1)" d="M 932.959 0 L 1070.67 0 L 1074.07 4.8662 C 1072.48 5.34666 930.023 6.30541 929.32 6.10346 C 930.863 4.12852 931.782 2.19941 932.959 0 z"/>
<path transform="translate(0,0)" fill="rgba(199, 201, 198, 1)" d="M 0 926.713 C 7.30271 940.436 3.25394 940.089 5.16305 953.285 C 6.83342 978.509 5.07374 1004.9 5.47839 1030.21 C 5.54872 1034.61 5.63267 1040.4 5.20566 1044.74 C 3.9946 1053.3 4.12666 1069.16 0 1074.55 L 0 926.713 z"/>
<path transform="translate(0,0)" fill="rgba(164, 164, 163, 1)" d="M 85.7141 1413.34 C 90.3263 1414.71 111.997 1464.77 116.621 1472.19 C 118.617 1475.4 127.441 1492.73 127.423 1496.43 C 117.14 1482.79 89.0807 1429.6 85.7141 1413.34 z"/>
<path transform="translate(0,0)" fill="rgba(108, 108, 111, 1)" d="M 320.96 270.369 C 320.812 271.453 320.664 272.537 320.516 273.621 C 308.76 287.531 294.364 301.654 280.918 313.943 C 280.094 314.696 277.764 314.817 277.303 314.866 C 284.63 304.145 310.372 278.617 320.96 270.369 z"/>
<path transform="translate(0,0)" fill="rgba(236, 236, 237, 1)" d="M 6.94135 904.494 C 8.19741 908.431 5.85708 946.511 5.16305 953.285 C 3.25394 940.089 7.30271 940.436 0 926.713 L 0 908.939 C 2.56802 907.723 4.58896 906.124 6.94135 904.494 z"/>
<path transform="translate(0,0)" fill="rgba(236, 236, 237, 1)" d="M 5.20566 1044.74 C 5.77613 1055.53 7.4419 1082.15 6.93964 1092.35 C 4.69653 1089.82 2.61596 1088.3 0 1086.21 L 0 1074.55 C 4.12666 1069.16 3.9946 1053.3 5.20566 1044.74 z"/>
<path transform="translate(0,0)" fill="rgba(132, 133, 131, 1)" d="M 244.048 1659.13 C 251.616 1660.47 271.09 1682.15 272.733 1690.01 C 262.59 1681.39 252.134 1669.6 244.048 1659.13 z"/>
<path transform="translate(0,0)" fill="rgba(85, 84, 85, 1)" d="M 1727.65 310.854 L 1726.77 312.355 C 1722.06 311.205 1711.59 299.115 1708.67 294.943 L 1709.15 292.306 C 1716.08 297.682 1722.29 303.914 1727.65 310.854 z"/>
<path transform="translate(0,0)" fill="url(#Gradient4)" d="M 1793.33 1492.14 C 1796.42 1492.25 1795.16 1491.69 1797.55 1493.12 C 1790.6 1507.5 1772.7 1530.7 1763.03 1544.28 C 1697.43 1636.35 1618.56 1709.66 1526.49 1774.63 L 1521.81 1772.17 C 1554.94 1746.06 1589.42 1723.08 1620.24 1693.65 C 1636.28 1678.33 1651.41 1661.38 1667.52 1646.21 C 1715.38 1601.13 1755.98 1546.16 1793.33 1492.14 z"/>
<path transform="translate(0,0)" fill="rgba(199, 201, 198, 1)" d="M 1172.15 987.737 C 1181.23 976.858 1187.57 973.725 1197.27 964.565 C 1238.13 925.98 1275.37 885.488 1307.46 839.259 C 1328.25 809.306 1348.69 779.361 1373.41 752.481 C 1380.7 744.548 1392.78 736.502 1401.68 730.083 L 1405.47 733.108 C 1359.54 762.968 1318.5 837.906 1283.11 880.973 C 1250.81 920.29 1215.83 959.531 1174.36 989.32 L 1172.15 987.737 z"/>
<path transform="translate(0,0)" fill="rgba(199, 201, 198, 1)" d="M 1372.34 1516.87 C 1375.72 1517 1374.19 1516.42 1376.86 1519.16 C 1331.19 1579.86 1277.4 1634 1216.98 1680.05 C 1209.81 1685.56 1185.98 1703.18 1179.06 1706.74 C 1176.75 1705.48 1177.61 1706.1 1176.07 1703.63 C 1202.39 1682.24 1231.42 1664.02 1256.18 1640.03 C 1259.87 1636.45 1264.66 1633.29 1268.37 1629.51 C 1292.3 1604.61 1318.17 1581.02 1341.74 1555.85 C 1351.88 1545.01 1362.55 1528.91 1372.34 1516.87 z"/>
<path transform="translate(0,0)" fill="rgba(199, 201, 198, 1)" fill-opacity="0.988235" d="M 1581.25 265.322 C 1586.69 265.77 1601.51 279.82 1606.43 283.864 C 1683.31 347.135 1750.41 421.919 1802.53 506.914 C 1807.93 515.721 1816.62 527.662 1819.48 537.327 C 1818 538.922 1818.9 538.346 1816.74 539.006 C 1763.56 440.031 1687.75 359.929 1604.76 286.914 C 1595.23 278.534 1589.91 275.346 1581.25 265.322 z"/>
<path transform="translate(0,0)" fill="rgba(164, 164, 163, 1)" d="M 1495.68 1310.34 C 1495.91 1311.39 1496.15 1312.43 1496.39 1313.47 C 1484.68 1347.02 1452.61 1405.89 1435.41 1433.62 C 1426.46 1448.05 1381.19 1515.87 1376.86 1519.16 C 1374.19 1516.42 1375.72 1517 1372.34 1516.87 C 1386.67 1498.88 1398.63 1478.19 1412.01 1459.51 C 1445.61 1412.6 1469.55 1361.61 1495.68 1310.34 z"/>
<path transform="translate(0,0)" fill="rgba(85, 84, 85, 1)" d="M 263.043 1533.8 C 289.822 1533.24 330.956 1539.43 359.144 1540.48 C 370.443 1540.91 407.828 1540.43 415.252 1541.88 C 431.85 1541.81 450.375 1545.74 466.282 1543.62 C 477.478 1537.73 475.616 1538.61 485.11 1546.55 C 474.462 1547.65 461.561 1549.36 451.002 1548.86 C 432.693 1547.99 415.31 1546.75 396.927 1546.8 C 383.513 1548.75 352.583 1543.74 337.253 1542.51 C 308.162 1540.17 277.671 1540.35 249.028 1538.61 L 249.214 1537.61 C 253.243 1535.33 258.388 1534.72 263.043 1533.8 z"/>
<path transform="translate(0,0)" fill="rgba(108, 108, 111, 1)" d="M 466.282 1543.62 C 477.478 1537.73 475.616 1538.61 485.11 1546.55 C 474.462 1547.65 461.561 1549.36 451.002 1548.86 C 432.693 1547.99 415.31 1546.75 396.927 1546.8 C 403.337 1545.35 414.288 1545.62 418.484 1544.51 C 412.499 1543.15 410.769 1542.96 404.719 1542.64 L 415.252 1541.88 C 431.85 1541.81 450.375 1545.74 466.282 1543.62 z"/>
<path transform="translate(0,0)" fill="rgba(236, 236, 237, 1)" d="M 731.969 1894.11 C 739.161 1893.92 822.97 1898.56 823.721 1898.95 L 824.007 1914.78 L 824.08 1919.48 C 819.111 1916.81 795.691 1913.36 788.665 1912.02 C 769.269 1908.33 749.492 1903.56 731.969 1894.11 z"/>
<path transform="translate(0,0)" fill="rgba(164, 164, 163, 1)" d="M 1182.79 1066.48 L 1181.87 1065.77 C 1184.79 1062.6 1190.38 1059.5 1194.11 1056.92 C 1245.42 1021.41 1290.33 974.907 1329.66 926.676 C 1335.48 919.539 1340.65 911.757 1346.88 904.903 L 1348.32 905.115 C 1318.9 958.946 1258.49 1013.81 1209.77 1050.38 C 1203.61 1054.99 1189.76 1063.85 1182.79 1066.48 z"/>
<path transform="translate(0,0)" fill="rgba(164, 164, 163, 1)" d="M 1017.7 1321.37 C 1019.04 1327.59 1009.03 1344.83 1005.77 1350.66 C 977.608 1401.07 936.095 1449.77 885.52 1478.55 C 881.388 1480.85 872.561 1484.87 868.064 1484.6 C 915.58 1460.58 957.789 1416.39 987.046 1372.51 C 997.564 1356.74 1005.9 1338.79 1017.7 1321.37 z"/>
<path transform="translate(0,0)" fill="rgba(85, 84, 85, 1)" d="M 907.066 1927.18 C 960.294 1930.75 1004.81 1927.77 1056.45 1929.15 C 1065.25 1930.7 1095.39 1930.3 1105.53 1930.37 C 1082.48 1934.98 1064.55 1934.03 1041.37 1934.38 C 1008.14 1934.89 975.669 1934.44 942.501 1932.36 C 931.599 1931.68 912.851 1932.73 903.251 1930.52 C 905.355 1929.45 905.32 1929.03 907.066 1927.18 z"/>
<path transform="translate(0,0)" fill="rgba(199, 201, 198, 1)" fill-opacity="0.984314" d="M 167.415 1199.01 L 168.397 1196.71 C 187.837 1246.46 208.024 1290.25 240.41 1333.04 C 243.328 1336.9 258.039 1355.04 256.734 1358.5 C 250.985 1353.97 241.941 1341.32 237.108 1335.02 C 209.015 1298.36 188.695 1260.44 172.512 1217.31 C 170.743 1212.6 169.134 1204.59 167.415 1199.01 z"/>
<path transform="translate(0,0)" fill="url(#Gradient3)" d="M 750.527 1825.11 C 778.118 1824.38 808.748 1824.74 836.41 1825.25 L 837.281 1825.45 C 841.255 1826.29 844.056 1826.57 848.097 1826.96 L 837.608 1827.14 L 837.756 1828.84 L 839.041 1829.45 C 799.226 1832.22 759.538 1831.14 719.68 1829.82 C 717.815 1828.3 708.158 1828.14 704.223 1827.71 C 711.968 1827.89 715.48 1826.74 722.923 1826.1 C 732.173 1825.3 741.013 1826.42 750.527 1825.11 z"/>
<path transform="translate(0,0)" fill="rgba(199, 201, 198, 1)" fill-opacity="0.988235" d="M 171.59 398.134 L 172.355 393.044 C 174.454 395.57 180.169 408.568 181.925 412.483 C 201.921 457.074 223.045 493.794 251.449 533.359 L 251.02 534.56 L 248.367 535.175 C 221.968 501.287 204.008 468.863 185.55 430.091 C 180.834 420.185 176.8 407.815 172.243 399.324 L 171.59 398.134 z"/>
<path transform="translate(0,0)" fill="rgba(164, 164, 163, 1)" d="M 1606.51 1011.03 C 1611.85 998.926 1619.25 988.46 1626.35 977.677 C 1655.23 933.775 1685.74 917.756 1732.33 898.544 C 1728.09 902.483 1721.31 904.924 1716.07 907.566 C 1669.75 930.945 1633.33 966.521 1607.85 1011.93 C 1606.63 1011.4 1607.01 1011.79 1606.51 1011.03 z"/>
<path transform="translate(0,0)" fill="rgba(199, 201, 198, 1)" d="M 446.735 654.655 L 445.558 655.216 C 435.557 651.312 362.772 576.764 354.843 565.499 L 355.999 564.325 C 367.569 572.161 438.274 643.025 446.735 654.655 z"/>
<path transform="translate(0,0)" fill="rgba(164, 164, 163, 1)" d="M 1407.33 1842.38 C 1421.54 1831.2 1435.76 1825.74 1451.08 1816.86 C 1475.31 1803.01 1498.91 1788.1 1521.81 1772.17 L 1526.49 1774.63 C 1513.75 1784.83 1419.52 1842.56 1407.33 1842.38 z"/>
<path transform="translate(0,0)" fill="rgba(108, 108, 111, 1)" d="M 633.268 1820.08 L 750.527 1825.11 C 741.013 1826.42 732.173 1825.3 722.923 1826.1 C 715.48 1826.74 711.968 1827.89 704.223 1827.71 C 708.158 1828.14 717.815 1828.3 719.68 1829.82 C 702.087 1832.1 639.508 1825.53 621.327 1821.4 L 622.555 1820.38 C 626.591 1820.51 629.222 1820.36 633.268 1820.08 z"/>
<path transform="translate(0,0)" fill="rgba(164, 164, 163, 1)" d="M 1172.15 987.737 L 1174.36 989.32 C 1152.5 1007.77 1110.32 1036.81 1083.93 1045.86 L 1082.21 1045.54 C 1083.32 1043.41 1084.72 1042.84 1086.76 1041.48 C 1091.06 1039.28 1097.59 1034.65 1102.33 1031.93 C 1126.16 1018.28 1148.91 1002.55 1172.15 987.737 z"/>
<path transform="translate(0,0)" fill="rgba(164, 164, 163, 1)" d="M 945.275 1521.56 L 944.745 1520.34 C 963.846 1500.7 991.454 1485.88 1008.33 1461.71 C 1011.87 1456.62 1032.96 1431.43 1035.7 1430.36 C 1017.48 1462.15 992.454 1489.51 962.416 1510.49 C 958.019 1513.61 949.786 1519.43 945.275 1521.56 z"/>
<path transform="translate(0,0)" fill="rgba(164, 164, 163, 1)" d="M 1061.07 1768.57 C 1090.13 1755.14 1117.59 1741.06 1144.2 1723.33 C 1154.9 1716.21 1165.43 1711.73 1176.07 1703.63 C 1177.61 1706.1 1176.75 1705.48 1179.06 1706.74 C 1162.26 1720.37 1077.8 1768.44 1061.07 1768.57 z"/>
<path transform="translate(0,0)" fill="url(#Gradient2)" d="M 80.2785 380.024 L 82.8885 383.823 L 82.9244 443.743 C 82.8896 455.581 83.1933 470.85 81.9944 482.406 C 81.72 478.881 81.9592 475.97 79.9563 473.202 L 80.9684 475.596 C 73.4723 462.706 78.2424 397.742 80.2785 380.024 z"/>
<path transform="translate(0,0)" fill="url(#Gradient1)" d="M 374.853 309.863 L 376.885 311.849 C 367.54 322.631 322.106 369.409 311.143 376.569 L 310.702 375.25 C 316.071 362.638 362.473 319.311 374.853 309.863 z"/>
<path transform="translate(0,0)" fill="rgba(164, 164, 163, 1)" d="M 374.853 309.863 C 385.251 301.121 400.361 286.245 410.318 278.3 C 420.044 270.54 479.308 223.67 487.586 223.561 C 478.336 231.635 467.52 237.83 457.939 245.584 C 437.25 262.326 415.781 277.734 396.367 296.022 C 391.028 301.051 380.656 305.985 376.885 311.849 L 374.853 309.863 z"/>
<path transform="translate(0,0)" fill="rgba(164, 164, 163, 1)" d="M 1676.32 1029.49 C 1677.26 1016.18 1725.76 969.87 1740.1 969.391 L 1676.32 1029.49 z"/>
<path transform="translate(0,0)" fill="rgba(199, 201, 198, 1)" d="M 1709.73 790.754 C 1708.11 788.413 1706.11 786.481 1706.01 784.138 C 1713.57 785.084 1778.1 848.199 1787.06 857.822 C 1785.67 859.135 1784.57 858.653 1782.02 858.741 C 1760.87 841.212 1739.52 814 1718.13 797.004 C 1715.21 794.686 1714.87 795.781 1709.73 790.754 z"/>
<path transform="translate(0,0)" fill="rgba(199, 201, 198, 1)" fill-opacity="0.984314" d="M 267.499 557.289 C 271.333 558.384 283.704 573.783 284.979 576.66 C 289.412 586.659 340.115 638.15 340.697 643.584 C 322.448 632.849 277.905 577.028 267.499 557.289 z"/>
<path transform="translate(0,0)" fill="rgba(199, 201, 198, 1)" fill-opacity="0.984314" d="M 275.451 1380.22 C 289.916 1388.1 314.742 1425.87 330.763 1436.5 C 333.655 1438.42 352.507 1455.18 354.325 1457.52 C 352.776 1457.98 352.092 1458.19 350.497 1458.49 C 346.095 1455.18 315.759 1429.5 313.585 1426.99 C 305.184 1417.27 278.867 1389.59 275.451 1380.22 z"/>
<path transform="translate(0,0)" fill="rgba(199, 201, 198, 1)" fill-opacity="0.980392" d="M 87.7111 1060.05 L 89.0769 1060 C 98.2415 1072.05 106.924 1089.74 115.119 1102.77 C 125.337 1119.02 137.92 1136.2 147.115 1152.86 L 146.124 1153.16 C 144.08 1151.21 143.244 1150.35 141.376 1148.1 C 131.869 1140.48 93.2975 1075.27 87.7111 1060.05 z"/>
<path transform="translate(0,0)" fill="rgba(164, 164, 163, 1)" d="M 1372.38 1626.61 C 1372.85 1625.32 1432.72 1553.47 1440.42 1543.85 L 1442.53 1544.05 C 1431.05 1563.92 1391.7 1614.64 1372.38 1626.61 z"/>
<path transform="translate(0,0)" fill="rgba(199, 201, 198, 1)" fill-opacity="0.980392" d="M 973.317 1017.57 L 976.416 1015.9 C 990.047 1023.93 1016.85 1075.48 1020.83 1090.73 C 1021.06 1091.61 1021.26 1092.5 1021.45 1093.39 C 1020 1095.04 1020.82 1094.58 1019.19 1095.1 C 1011.36 1071.05 989.125 1037.23 973.317 1017.57 z"/>
<path transform="translate(0,0)" fill="rgba(164, 164, 163, 1)" d="M 1317.23 1684.67 L 1316.74 1683.35 C 1319.87 1676.4 1363.95 1632.07 1369.81 1629.34 C 1367.1 1633.08 1366.22 1634.51 1364.32 1638.01 C 1358.05 1649.6 1328.3 1680.09 1317.23 1684.67 z"/>
<path transform="translate(0,0)" fill="rgba(108, 108, 111, 1)" d="M 69.0928 1062.29 C 74.6359 1061.81 68.8112 1060.93 75.4089 1058 L 75.9222 1063.19 C 73.3845 1079.89 76.3168 1114.37 76.0183 1134.77 L 75.705 1138.98 L 75.0791 1138.34 C 72.2717 1127.04 67.7228 1074.21 69.0928 1062.29 z"/>
<path transform="translate(0,0)" fill="rgba(164, 164, 163, 1)" d="M 287.779 1604.86 C 301.012 1604.8 314.237 1605.5 327.39 1606.95 C 325.693 1607.75 312.541 1607.72 307.44 1608.65 C 292.836 1617.07 317.2 1634.86 322.908 1644.63 C 322.372 1644.89 322.829 1644.73 320.901 1645.04 C 308 1634.11 295.47 1620.01 287.779 1604.86 z"/>
<path transform="translate(0,0)" fill="rgba(132, 133, 131, 1)" d="M 319.193 1330.22 C 327.495 1337.83 375.873 1383.91 380.633 1391.75 C 371.674 1390.59 326.274 1343.07 318.668 1332.52 L 319.193 1330.22 z"/>
<path transform="translate(0,0)" fill="rgba(199, 201, 198, 1)" d="M 1031.66 975.274 C 1031.54 977.601 1031.68 976.391 1031.22 978.899 C 1027.79 976.515 1023.35 970.495 1020.76 966.852 C 1007.74 948.464 986.504 934.901 971.986 919.065 L 972.379 917.401 C 985.98 925.124 1008.03 944.678 1017.92 956.903 C 1022.53 962.613 1027.27 970.163 1031.66 975.274 z"/>
<path transform="translate(0,0)" fill="rgba(108, 108, 111, 1)" d="M 1933.04 980.61 C 1934.1 975.945 1935.16 962.552 1938.04 959.469 C 1938.95 964.316 1938.57 1025.43 1937.3 1028.96 L 1935.87 1025.36 C 1934.68 1027.96 1935.02 1034.62 1935 1037.83 C 1933.01 1034.36 1934.23 990.743 1932.98 981.924 L 1933.04 980.61 z"/>
<path transform="translate(0,0)" fill="rgba(85, 84, 85, 1)" d="M 824.007 1914.78 C 824.777 1915.59 825.548 1916.4 826.318 1917.2 C 845.916 1921.67 889.394 1924.12 907.066 1927.18 C 905.32 1929.03 905.355 1929.45 903.251 1930.52 C 891.357 1930.06 835.868 1922.83 824.08 1919.48 L 824.007 1914.78 z"/>
<path transform="translate(0,0)" fill="rgba(164, 164, 163, 1)" d="M 1227.3 1756.65 C 1229.47 1751.19 1275.54 1720.3 1282.97 1711.9 C 1284.73 1709.9 1295.09 1700.77 1297.34 1700.3 C 1288.06 1714.96 1242.49 1751.34 1227.3 1756.65 z"/>
<path transform="translate(0,0)" fill="rgba(164, 164, 163, 1)" d="M 283.925 895.546 C 277.154 894.931 231.4 847.768 225.73 839.491 L 226.241 836.88 C 235.74 846.116 278.561 887.291 283.925 895.546 z"/>
<path transform="translate(0,0)" fill="rgba(132, 133, 131, 1)" d="M 1832.61 1426.09 C 1832.55 1433.25 1803.46 1487.2 1797.55 1493.12 C 1795.16 1491.69 1796.42 1492.25 1793.33 1492.14 C 1796.02 1486.42 1803.81 1475.61 1807.24 1469.3 C 1815.43 1454.23 1823.4 1440.52 1832.61 1426.09 z"/>
<path transform="translate(0,0)" fill="rgba(164, 164, 163, 1)" d="M 1355.51 894.928 C 1356.44 886.797 1399.27 832.036 1406.98 824.951 L 1408.57 825.329 C 1405.82 832.152 1362.53 886.784 1355.51 894.928 z"/>
<path transform="translate(0,0)" fill="rgba(164, 164, 163, 1)" fill-opacity="0.988235" d="M 69.0928 1062.29 C 68.6593 1055.21 66.5803 1040.74 70.0414 1035.3 L 72.0913 1035 C 77.8895 1038.82 82.4752 1048.26 84.3702 1054.81 L 83.0126 1056.34 C 79.9919 1056.44 78.265 1057.14 75.4089 1058 C 68.8112 1060.93 74.6359 1061.81 69.0928 1062.29 z"/>
<path transform="translate(0,0)" fill="rgba(85, 84, 85, 1)" d="M 619.184 1511.97 C 634.64 1513.73 654.813 1512.83 667.357 1514.86 C 669.907 1515.66 671.82 1515.97 673.713 1517.81 L 671.914 1518.94 C 653.377 1520.85 624.551 1517.13 606.705 1512.43 C 611.232 1512.42 614.678 1512.34 619.184 1511.97 z"/>
<path transform="translate(0,0)" fill="rgba(164, 164, 163, 1)" d="M 1836.8 811.81 C 1829.81 811.07 1787.61 771.106 1780.75 763.715 L 1783.21 763.111 C 1791.98 769.569 1832.05 804.522 1836.8 811.81 z"/>
<path transform="translate(0,0)" fill="rgba(132, 133, 131, 1)" d="M 1401.68 730.083 C 1410.3 721.482 1441.36 705.983 1453.69 702.645 L 1454.16 703.484 C 1434.18 710.635 1422.02 724.426 1405.47 733.108 L 1401.68 730.083 z"/>
<path transform="translate(0,0)" fill="rgba(85, 84, 85, 1)" d="M 368.842 1691.85 C 361.537 1690.79 329.769 1657.94 324.682 1650.49 L 325.026 1649.25 C 327.278 1650.86 328.838 1651.85 331.168 1653.26 C 337.881 1660.03 364.854 1686.12 368.842 1691.85 z"/>
<path transform="translate(0,0)" fill="rgba(108, 108, 111, 1)" fill-opacity="0.968627" d="M 1035.9 1148.67 L 1037.45 1148.21 C 1039.88 1153.83 1042.23 1174.33 1042.1 1180.88 C 1041.88 1185.46 1042.2 1197.17 1040.5 1200.23 C 1035.06 1195.17 1040.95 1184.95 1037.43 1179.27 C 1036.77 1169.51 1035.74 1158.34 1035.9 1148.67 z"/>
<path transform="translate(0,0)" fill="rgba(132, 133, 131, 1)" d="M 385.839 1394.74 C 390.219 1396.13 425.49 1427 428.752 1431.6 C 421.828 1431.02 389.538 1401.1 382.97 1394.59 L 385.839 1394.74 z"/>
<path transform="translate(0,0)" fill="rgba(199, 201, 198, 1)" fill-opacity="0.988235" d="M 936.661 977.754 L 934.017 973.069 L 934.516 972.198 C 940.574 974.448 964.316 996.975 964.669 1002.92 C 955.555 998.501 943.356 985.498 936.661 977.754 z"/>
<path transform="translate(0,0)" fill="rgba(85, 84, 85, 1)" d="M 1037.43 1179.27 C 1040.95 1184.95 1035.06 1195.17 1040.5 1200.23 C 1042.2 1197.17 1041.88 1185.46 1042.1 1180.88 C 1044.86 1194.69 1042.78 1216.53 1041.03 1230.69 C 1040.51 1227.67 1038.68 1214.8 1037.36 1213.29 C 1036.71 1202.7 1036.98 1189.81 1037.43 1179.27 z"/>
<path transform="translate(0,0)" fill="rgba(132, 133, 131, 1)" d="M 412.915 1726.61 L 410.821 1727.16 C 404.159 1723.84 376.719 1701.1 372.245 1695.37 C 374.427 1694.57 373.981 1695.02 376.881 1695.47 C 387.222 1705.33 405.722 1718.48 412.915 1726.61 z"/>
<path transform="translate(0,0)" fill="rgba(164, 164, 163, 1)" d="M 216.415 1123.26 C 216.18 1125.82 216.501 1124.62 215.494 1126.89 C 210.298 1124.36 189.31 1102.2 190.323 1097.4 C 198.223 1103.95 208.998 1115.62 216.415 1123.26 z"/>
<path transform="translate(0,0)" fill="rgba(164, 164, 163, 1)" d="M 275.365 417.858 C 275.299 412.287 296.124 388.206 301.573 386.22 C 294.101 399.31 287.477 408.223 275.365 417.858 z"/>
<path transform="translate(0,0)" fill="rgba(85, 84, 85, 1)" d="M 81.8006 830.803 C 79.8599 834.352 79.6581 838.857 78.9692 843.056 C 75.2266 830.853 80.9096 811.308 80.3295 803.674 L 79.6686 804.246 L 80.6002 804.396 L 79.797 802.246 L 80.0778 801.968 L 81.0692 802.886 L 80.2343 803.302 C 80.4931 805.207 80.7767 806.029 81.6706 807.731 C 82.2682 816.624 82.2186 821.86 81.8006 830.803 z"/>
<path transform="translate(0,0)" fill="rgba(108, 108, 111, 1)" d="M 80.2785 380.024 C 79.6048 374.079 82.0927 356.791 83.2341 350.77 C 83.9583 358.161 83.9555 366.981 84.1422 374.512 L 83.8508 379.456 L 82.8885 383.823 L 80.2785 380.024 z"/>
</g></svg></svg></svg>