<svg width="1024" height="1024" viewBox="0 0 1024 1024" xmlns="http://www.w3.org/2000/svg" preserveAspectRatio="xMidYMid meet"><svg x="303" y="324" width="360" height="360" xmlns="http://www.w3.org/2000/svg" preserveAspectRatio="none"><svg version="1.1" xmlns="http://www.w3.org/2000/svg" style="display: block;" width="360" height="360" viewBox="4.26 0.00 2004.00 2004.00" preserveAspectRatio="none"><g id="svg-group-a3b41854-d72c-4f98-8230-3b5089f478c9">
<path transform="translate(0,0)" fill="rgba(54, 111, 177, 1)" d="M 997.03 0 L 1026.87 0 L 1029.83 4.91412 C 1033.94 6.77482 1034.55 6.7547 1038.97 6.89526 C 1306.44 14.024 1560.07 127.31 1743.88 321.745 C 1769.44 349.222 1794.07 381.325 1815.87 411.759 C 1822.36 420.828 1829.76 429.683 1835.97 438.769 C 1899.91 533.578 1947.79 638.281 1977.67 748.665 C 1984.99 775.933 1990.4 804.201 1995.72 831.961 C 1998.22 845.002 1998.47 859.354 2002.33 871.888 C 2003.24 874.831 2005.5 875.993 2008 877.485 L 2008 1110.59 C 2003.11 1114.22 2001.85 1114.67 2001.11 1120.31 C 1998.02 1143.66 1994.76 1167.37 1990.14 1190.48 C 1967.85 1301.71 1927.13 1408.43 1869.68 1506.24 C 1864.32 1515.44 1859.62 1525.32 1854.15 1534.27 C 1807.08 1611.31 1751.59 1680.2 1685.05 1741.23 C 1664.68 1759.91 1642.08 1777.57 1619.94 1794.16 C 1598.17 1812.06 1580.52 1823.98 1557.32 1839.09 C 1476.72 1891.95 1388.98 1933.02 1296.77 1961.06 C 1238.82 1978.42 1181.33 1990.66 1121.45 1996.83 C 1116.83 1997.3 1112.55 2001.03 1109.12 2004 L 906.345 2004 C 905.253 2002.81 901.941 1999.3 900.594 1998.83 C 887.602 1994.37 869.187 1993.05 855.62 1990.53 C 788.65 1978.07 724.275 1958.69 659.979 1936.44 C 650.194 1933 640.659 1927.78 630.994 1924.2 C 595.35 1911.25 560.726 1895.46 527.915 1876.57 C 476.596 1847.26 426.162 1818.41 380.145 1781.06 C 361.778 1766.16 342.402 1754.24 325.99 1736.56 C 319.351 1729.41 308.384 1722.42 301.681 1715.12 C 286.987 1699.13 273.476 1682.4 257.683 1667.39 C 237.962 1648.02 221.599 1624.54 203.845 1603.35 C 197.007 1595.18 191.772 1583.78 185.25 1575.2 C 167.211 1554.06 155.011 1529.08 139.527 1506.6 C 121.89 1481 112.808 1459.84 100.303 1431.94 C 63.8978 1351.36 38.4203 1266.27 24.5465 1178.94 C 20.2107 1152.09 18.99 1128.64 16.076 1101.94 C 11.1629 1056.92 13.08 1013.83 11.3723 968.822 C 11.1641 963.335 7.59833 958.936 4.52838 954.585 C 8.93351 946.298 14.731 939.26 13.3956 930.424 C 12.2045 922.543 15.4677 911.27 15.659 902.49 C 16.8576 847.458 26.2389 793.065 37.3459 739.285 C 41.8552 717.253 52.3351 684.859 54.8783 664.488 C 56.2961 653.132 42.2907 605.65 38.8184 590.9 C 35.4018 575.766 32.5522 560.509 30.2755 545.162 C 9.38569 410.932 21.1937 280.528 71.7545 153.717 C 85.9524 118.107 96.3264 84.5458 118.666 52.559 C 133.141 31.8316 128.218 24.6165 155.991 16.2924 C 168.535 20.2677 178.472 23.8511 181.533 38.7202 C 187.099 65.7576 182.66 102.134 183.967 130.279 C 187.25 200.938 200.194 270.143 225.738 336.134 C 229.127 344.89 234.013 359.366 238.072 366.856 C 260.184 346.852 276.602 325.174 297.376 304.201 C 310.531 290.92 324.201 276.551 337.936 263.943 C 468.16 145.614 627.62 64.2066 799.837 28.1319 C 844.163 18.7038 885.079 12.2547 930.149 9.00202 C 946.858 7.79611 981.08 9.59562 994.574 5.13988 L 997.03 0 z M 379.187 319.833 C 369.215 330.28 356.439 339.72 345.669 351.103 C 339.575 357.969 333.105 365.111 327.33 372.203 C 324.256 376.371 292.915 412.081 289.669 414.394 C 286.177 420.382 272.284 431.317 275.297 437.984 C 288.769 467.789 311.908 495.231 329.287 522.933 C 334.276 529 352.51 550.59 355.611 556.747 L 356.266 557.637 C 380.926 585.509 418.72 620.962 445.854 648.015 C 458.074 659.43 470.48 668.736 482.621 679.745 C 561.952 735.843 639.925 775.506 731.818 807.014 C 795.767 828.941 861.742 846.87 920.902 879.668 C 925.902 882.439 941.702 890.003 945.365 893.519 C 985.674 915.717 1030.78 958.16 1052.62 998.61 C 1057.27 1001.96 1077.4 1044.88 1084.37 1047.39 C 1100.08 1043.92 1158.01 1004.26 1173.18 993.735 C 1213.91 961.998 1250.81 925.642 1283.16 885.395 C 1329.68 826.714 1369.28 747.724 1438.9 713.391 C 1480.88 694.342 1527.86 682.681 1573.38 675.924 C 1604.27 671.338 1643.59 681.145 1673.04 691.477 C 1682.35 694.74 1736.38 720.306 1740.26 725.249 C 1753.06 731.847 1772.8 747.205 1783.79 757.117 C 1798.14 768.041 1805.8 775.725 1818.27 788.665 C 1836.04 805.607 1855.22 818.907 1874.38 834.117 C 1877.71 836.762 1892.07 846.377 1893.92 848.449 C 1902.32 853.881 1923.55 868.663 1933.22 867.266 C 1937.65 863.183 1935.46 857.006 1934.42 851.658 C 1924.77 801.929 1911.55 752.894 1896.55 704.531 C 1892.42 690.361 1884.24 675.569 1880.14 661.628 C 1870.71 629.558 1860.36 603.12 1844.03 573.851 C 1835.09 561.01 1828.53 547.123 1820.35 533.692 C 1799.29 498.184 1776.07 464.849 1751.29 431.866 C 1717.37 386.71 1674.15 351.154 1637.02 309.399 L 1629.67 302.838 C 1618.77 296.742 1595.26 274.994 1583.19 265.371 C 1551.12 242.618 1514.1 215.068 1479.83 195.545 C 1331.93 111.279 1156.44 62.9999 985.778 71.1695 C 901.15 75.2206 814.717 87.1731 733.588 111.752 C 656.034 135.248 579.277 173.939 510.566 216.309 C 498.708 223.59 487.335 233.71 475.26 240.396 C 454.463 259.406 426.397 275.582 405.991 296.275 C 399.41 302.949 386.853 315.01 379.187 319.833 z M 96.1272 303.52 C 92.9318 326.261 91.1322 347.859 91.2469 370.861 C 91.2636 374.211 91.3505 379.075 91.0617 382.351 C 91.4675 397.93 87.2516 415.705 87.9624 429.763 C 89.4062 458.32 91.0596 492.655 94.3498 520.789 C 96.54 527.852 97.3745 538.757 98.4484 546.324 C 100.329 559.57 101.859 572.465 105.659 585.384 C 122.931 654.401 150.007 716.713 187.636 777.053 C 197.143 792.297 212.495 810.308 223.323 825.267 C 246.683 850.429 272.619 873.962 296.484 898.705 C 300.701 903.077 305.233 907.674 309.681 911.779 C 321.044 919.965 331.965 929.221 343.314 937.229 C 371.532 957.138 401.041 973.57 432.47 987.725 C 446.279 993.944 485.965 1003.61 493.227 1015.31 C 504.672 1027.61 505.845 1045.12 495.419 1058.35 C 489.323 1068.79 476.807 1064.08 466.935 1062.68 C 444.023 1059.47 421.626 1053.29 400.308 1044.3 C 361.836 1028.53 283.489 979.956 254.668 951.695 C 239.206 943.07 232.012 933.331 219.605 921.353 C 187.942 890.784 156.168 852.539 132.452 815.376 L 131.336 813.871 C 124.955 805.134 110.744 784.183 107.608 773.858 C 106.218 770.385 105.522 766.067 101.792 765.449 L 98.5 768.118 C 89.7135 794.305 85.7616 833.379 90.4998 860.8 C 101.11 897.378 107.818 933.007 123.827 968.263 C 125.561 972.082 129.68 982.954 130.551 986.707 C 137.718 1000.85 145.974 1016.59 152.516 1030.96 C 164.649 1048.88 171.139 1060.81 185.009 1079.35 C 191.281 1087.73 197.703 1096 204.272 1104.15 C 205.27 1105.4 212.94 1114.69 213.303 1115.31 C 235.803 1138.76 262.799 1165.95 289.822 1183.88 C 306.675 1193.81 322.114 1207.2 339.361 1216.91 C 399.063 1250.53 463.611 1273.6 532.525 1276.86 C 563.258 1278.77 594.548 1273.63 624.771 1280.16 C 669.654 1289.84 656.452 1342.92 620.041 1346.51 C 527.35 1355.64 434.635 1331.3 349.808 1295.41 C 327.129 1285.82 309.39 1271.77 286.184 1267.07 C 286.38 1269.1 287.13 1277.42 288.089 1279.11 C 299.454 1299.14 317.062 1319.23 330.887 1337.93 C 333.294 1341.18 341.577 1347.57 345.195 1351.78 C 380.343 1385.93 413.876 1415.73 454.039 1443.91 C 523.271 1487.4 576.096 1515.78 660.997 1517.2 C 680.107 1517.53 702.159 1516.93 721.189 1516.73 C 746.357 1516.46 784.231 1519.5 807.22 1513.85 C 837.073 1506.5 887.331 1481.72 912.975 1464.64 C 924.523 1454.07 936.886 1444.5 948.674 1433.89 C 950.394 1431.06 955.673 1426.06 958.156 1423.75 C 967.38 1409.81 980.02 1397.38 989.834 1383.44 C 996.109 1374.53 1001.98 1361.98 1008.15 1353.8 C 1013.22 1343.68 1019.7 1334.36 1024.76 1323.36 C 1039.78 1290.69 1045.57 1262.72 1045.18 1227.41 C 1044.18 1203.11 1045.28 1179.96 1043.87 1154.98 C 1042.15 1149.59 1039.97 1133.23 1037.82 1125.69 C 1034.46 1113.97 1031.68 1107.5 1027.49 1096.3 C 1021.08 1077.64 1007.1 1052.75 995.768 1036.69 C 988.892 1026.94 980.649 1017.21 974.104 1007.22 L 973.544 1006.36 C 971.266 1004.86 953.732 985.412 949.209 981.456 C 884.762 925.102 808.554 899.896 728.593 874.002 C 667.281 854.147 604.344 829.484 547.012 799.195 C 522.31 786.144 497.613 773.247 474.677 756.552 C 443.084 737.973 412.034 715.348 387.016 688.649 C 383.807 685.225 380.297 681.868 376.987 678.519 C 370.057 671.924 363.163 664.401 356.544 657.429 C 354.61 655.96 353.252 654.386 351.593 652.628 C 339.613 641.798 329.141 631.726 320.263 618.196 C 318.632 616.978 313.78 611.018 312.164 609.128 C 303.824 603.37 254.188 534.536 245.588 522.637 C 224.028 492.676 212.783 468.978 196.66 436.194 C 184.788 412.055 172.376 389.354 164.641 363.201 C 161.58 357.364 158.006 345.754 155.729 339.222 C 145.156 308.884 138.164 278.14 132.422 246.571 C 130.51 236.06 130.384 225.314 128.258 215.039 C 127.903 213.321 127.5 213.679 125.464 212.789 C 120.968 213.111 120.71 213.031 116.922 215.247 C 116.022 220.799 114.091 226.068 112.598 231.475 C 106.039 255.227 101.049 279.387 96.1272 303.52 z M 1687.68 1029.2 C 1681.43 1037.56 1671.38 1050.48 1667.41 1059.79 C 1653.95 1091.26 1643.47 1128.33 1633.63 1161.18 C 1623.84 1194.36 1612.82 1227.16 1600.59 1259.52 C 1571.59 1337.92 1526.55 1430.85 1481.51 1501.24 C 1475.18 1514.63 1451 1550.98 1440.43 1560.99 C 1427.94 1580.73 1404.05 1602.68 1389.79 1620.32 C 1379.4 1638.08 1291.09 1723 1274.89 1730.64 C 1231.13 1764.73 1193.88 1786.49 1144.56 1811.43 C 1055.05 1856.69 960.869 1888.34 860.941 1899.85 C 847.755 1901.37 833.812 1900.92 820.306 1902.43 L 819.756 1906.06 C 820.319 1909.19 819.922 1913.96 819.792 1917.25 C 825.385 1917.47 831.129 1918.11 836.618 1919.12 C 899.205 1930.71 962.133 1933.89 1025.7 1932.83 C 1047.08 1932.47 1069.02 1933.51 1090.42 1932.43 C 1178.48 1927.67 1265.08 1907.96 1346.53 1874.15 C 1393.66 1854.96 1431.07 1836.64 1474.34 1809.71 C 1562.5 1760.98 1633.16 1694.8 1702.68 1623.23 C 1704.65 1620.57 1706.65 1618.92 1709.06 1616.69 C 1716.1 1606.99 1723.92 1598.72 1731.01 1589.43 C 1755.05 1557.9 1780.34 1528.44 1801.18 1494.58 C 1892.13 1340.36 1938.48 1204.23 1941.01 1023.96 C 1939.93 1010.19 1940.5 948.271 1944.74 936.551 C 1872.5 930.203 1804.75 940.566 1741.86 977.22 C 1729.45 986.944 1718.11 995.623 1706.78 1006.8 C 1702.68 1010.85 1690.75 1026.64 1687.68 1029.2 z M 79.6264 1081.53 C 80.7767 1087.23 82.5458 1095.56 82.6933 1101.33 C 83.4185 1129.71 87.8612 1156.39 91.6806 1184.32 C 95.3493 1211.16 107.244 1240.34 110.23 1266.09 C 130.603 1328.26 149.613 1390.55 181.668 1447.72 C 193.082 1468.08 205.128 1488.38 217.113 1508.43 C 223.302 1518.78 232.222 1529.73 237.837 1540.14 C 262.837 1535.37 292.672 1537.42 317.998 1539.7 C 321.631 1540.03 330.675 1540.59 333.743 1541.63 C 353.868 1542.28 373.935 1543.94 394.389 1544.7 C 414.382 1545.44 446.656 1542.9 464.69 1544.37 C 465.78 1534.63 465.589 1534.03 458.214 1527.65 C 452.537 1526.16 412.276 1499.78 405.974 1494.18 C 398.912 1492.37 352.741 1456.54 344.363 1449.5 C 340.059 1445.88 329.502 1435.01 325.805 1429.94 C 322.095 1427.18 320.752 1426.38 317.855 1422.89 C 277.638 1387.42 225.652 1315.07 201.1 1266.79 C 189.606 1244.19 179.541 1215.28 170.307 1191.42 C 165.971 1180.22 158.57 1171.72 154.462 1159.35 C 151.946 1156.88 149.779 1152.32 147.939 1149.06 C 138.676 1135.34 128.32 1121.6 119.402 1107.8 C 110.935 1094.7 102.915 1080.46 94.6193 1067.05 C 91.6648 1066.05 91.4187 1066.27 88.2974 1066.08 C 83.4597 1070.9 81.9216 1075.1 79.6264 1081.53 z M 1801.52 879.373 C 1803.45 876.875 1803.83 876.385 1805.38 873.484 C 1790.89 860.278 1778.21 850.273 1764.81 835.009 C 1749.52 825.706 1737.8 810.574 1724.59 798.407 C 1715.93 790.429 1707.87 784.401 1698.52 777.345 C 1649.06 745.067 1601.41 734.313 1543.98 748.103 C 1520.5 753.742 1496.74 760.452 1476.18 773.995 C 1467.06 780.004 1459.37 787.002 1450.7 793.188 C 1439.55 806.038 1428.15 817.015 1417.19 829.344 C 1402.61 845.834 1388.99 863.148 1376.39 881.199 C 1356.92 908.125 1337.79 936.115 1316.21 961.371 C 1313.6 964.43 1310.51 967.189 1307.97 970.313 C 1292.23 989.159 1281.74 1000.53 1262.48 1016 C 1245.81 1029.4 1226.58 1049.81 1207.41 1059.49 C 1198.28 1067.16 1135.3 1102.51 1122.38 1108.46 C 1119.13 1111.06 1109.69 1117.56 1110.3 1122.13 C 1117.33 1174.58 1127.13 1230.22 1108.68 1282 C 1100.37 1317.91 1088.7 1351.74 1071.72 1384.51 C 1065.13 1397.07 1059.43 1411.24 1052.19 1423.36 C 991.371 1525.08 872.978 1580.21 757.746 1587.9 C 716.786 1590.63 692.037 1583.28 650.606 1595.41 C 593.811 1612.04 527.205 1620.49 468.148 1620.11 C 415.367 1618.96 361.309 1610.03 308.467 1609.74 C 302.447 1609.71 305.254 1617.84 306.396 1621.26 C 310.624 1625.02 313.649 1627.83 317.604 1631.94 C 351.484 1665.51 382.679 1700.18 421.433 1727.89 C 425.699 1730.94 432.985 1736.1 436.41 1739.6 C 440.513 1740.59 465.513 1758.4 472.116 1762.07 C 501.983 1778.7 531.298 1794.98 563.94 1805.76 C 620.753 1824.53 692.734 1829.04 752.375 1828.92 C 789.29 1828.85 835.803 1830.23 871.789 1827.84 C 951.073 1822.59 1029.08 1790.2 1099.68 1755.78 C 1110.91 1750.3 1122.49 1743.2 1134.01 1737.49 C 1144.85 1731.18 1153.47 1725.96 1164.74 1720.02 C 1165.95 1718.51 1172.36 1714.92 1174.17 1713.9 C 1211.24 1688.42 1246.63 1659.47 1280.34 1629.61 C 1292.17 1618.62 1303.24 1606.32 1314.94 1595.23 C 1364.73 1548 1402.68 1489.08 1440.65 1432.11 C 1453.02 1411.88 1461.63 1391.02 1473.06 1370.8 C 1486.24 1347.45 1496.86 1327.31 1508.14 1303.1 C 1509.44 1296.52 1519.21 1278.52 1522.71 1271.84 C 1522.76 1271.64 1529.53 1255.42 1530.25 1253.59 C 1537.19 1236.27 1543.82 1218.83 1550.12 1201.26 C 1572.89 1136.11 1594.33 1040.3 1630.04 984.715 C 1641.04 965.488 1672.42 936.173 1691.63 925.472 C 1706.27 911.051 1778.97 884.352 1801.52 879.373 z"/>
<path transform="translate(0,0)" fill="rgba(234, 237, 240, 1)" d="M 997.03 0 L 1026.87 0 L 1029.83 4.91412 C 1026.79 6.25627 998.32 6.44803 994.574 5.13988 L 997.03 0 z"/>
<path transform="translate(0,0)" fill="rgba(134, 178, 216, 1)" d="M 1440.65 1432.11 C 1439.42 1448.18 1360.99 1552.35 1346.64 1568.96 C 1323.37 1594.45 1298.69 1619.73 1272.73 1642.48 C 1249.86 1662.52 1226.4 1681.63 1201.14 1698.52 C 1192.19 1704.5 1186.13 1712.55 1174.17 1713.9 C 1211.24 1688.42 1246.63 1659.47 1280.34 1629.61 C 1292.17 1618.62 1303.24 1606.32 1314.94 1595.23 C 1364.73 1548 1402.68 1489.08 1440.65 1432.11 z"/>
<path transform="translate(0,0)" fill="rgba(134, 178, 216, 1)" d="M 1173.18 993.735 C 1213.91 961.998 1250.81 925.642 1283.16 885.395 C 1329.68 826.714 1369.28 747.724 1438.9 713.391 C 1437.6 716.973 1405.74 739.726 1399.85 745.14 C 1325.03 813.961 1284.02 912.802 1201.88 975.442 C 1195.14 980.581 1181.89 994.045 1173.18 993.735 z"/>
<path transform="translate(0,0)" fill="rgba(112, 155, 200, 1)" d="M 1702.68 1623.23 L 1704 1625.23 C 1702.5 1630.73 1688.35 1644.59 1683.59 1649.56 C 1643.16 1691.93 1598.79 1730.35 1551.08 1764.32 C 1535.41 1775.57 1519.21 1786.73 1502.46 1796.18 C 1494.32 1800.77 1487.21 1809.9 1477.65 1811.88 C 1476.51 1810.99 1475.71 1810.23 1474.34 1809.71 C 1562.5 1760.98 1633.16 1694.8 1702.68 1623.23 z"/>
<path transform="translate(0,0)" fill="rgba(182, 208, 226, 1)" d="M 1637.02 309.399 C 1658.84 313.085 1766.36 442.741 1780.98 466.915 C 1790.18 482.133 1841.45 557.145 1844.03 573.851 C 1835.09 561.01 1828.53 547.123 1820.35 533.692 C 1799.29 498.184 1776.07 464.849 1751.29 431.866 C 1717.37 386.71 1674.15 351.154 1637.02 309.399 z"/>
<path transform="translate(0,0)" fill="rgba(182, 208, 226, 1)" d="M 154.462 1159.35 C 169.829 1174.89 179.977 1209.65 188.329 1230.54 C 212.824 1291.82 251.427 1345.55 295.488 1394.24 C 300.574 1399.86 317.717 1416.09 317.855 1422.89 C 277.638 1387.42 225.652 1315.07 201.1 1266.79 C 189.606 1244.19 179.541 1215.28 170.307 1191.42 C 165.971 1180.22 158.57 1171.72 154.462 1159.35 z"/>
<path transform="translate(0,0)" fill="rgba(112, 155, 200, 1)" d="M 76.7638 1062.13 C 79.637 1063.21 85.5358 1065.63 88.2974 1066.08 C 83.4597 1070.9 81.9216 1075.1 79.6264 1081.53 C 80.7767 1087.23 82.5458 1095.56 82.6933 1101.33 C 83.4185 1129.71 87.8612 1156.39 91.6806 1184.32 C 95.3493 1211.16 107.244 1240.34 110.23 1266.09 L 107.875 1265.32 C 101.941 1241.92 95.2067 1233.1 92.6596 1205.99 C 93.1742 1207.92 92.8134 1207.07 93.6606 1208.6 C 94.9165 1204.81 94.8531 1206.65 94.1148 1202.91 C 84.6625 1192.28 92.7265 1190.29 90.079 1182.95 L 88.4123 1183.94 L 87.4107 1183.56 C 84.4709 1171.84 85.063 1171.35 84.4397 1159.66 L 82.3118 1119.95 C 81.7718 1121.34 81.3281 1122.25 80.6866 1123.59 C 80.3463 1121.55 78.4223 1117.11 78.5616 1115.67 C 79.9037 1101.79 73.4648 1074.09 76.7638 1062.13 z"/>
<path transform="translate(0,0)" fill="rgba(234, 237, 240, 1)" d="M 767.465 1898.62 C 773.651 1898.94 817.386 1900.69 820.306 1902.43 L 819.756 1906.06 C 818.966 1908.03 819 1914.48 818.905 1917.01 C 796.594 1912.53 776.775 1912.01 754.717 1903.63 C 756.728 1901.66 764.167 1899.8 767.465 1898.62 z"/>
<path transform="translate(0,0)" fill="rgba(182, 208, 226, 1)" d="M 132.452 815.376 C 140.701 821.017 153.677 842.764 160.85 851.618 C 182.852 878.316 206.582 903.54 231.889 927.129 C 236.088 931.117 253.611 947.065 254.668 951.695 C 239.206 943.07 232.012 933.331 219.605 921.353 C 187.942 890.784 156.168 852.539 132.452 815.376 z"/>
<path transform="translate(0,0)" fill="rgba(76, 127, 180, 1)" d="M 1108.68 1282 C 1107.52 1271.68 1113.3 1258.61 1113.63 1249.41 C 1114.37 1228.78 1115.2 1206.77 1114.39 1186.01 C 1113.61 1165.84 1107.5 1140.72 1108.15 1120.04 C 1108.26 1116.39 1113.73 1110.83 1116.48 1108.96 C 1119.23 1107.09 1118.63 1107.8 1122.38 1108.46 C 1119.13 1111.06 1109.69 1117.56 1110.3 1122.13 C 1117.33 1174.58 1127.13 1230.22 1108.68 1282 z"/>
<path transform="translate(0,0)" fill="rgba(134, 178, 216, 1)" d="M 1274.89 1730.64 C 1274.17 1730.05 1274.52 1730.47 1274.19 1729.15 C 1279.52 1724.5 1284.2 1720.12 1289.29 1715.19 C 1314.27 1691 1342.31 1669.74 1364.94 1643.14 C 1369.11 1638.23 1384.89 1621.4 1389.79 1620.32 C 1379.4 1638.08 1291.09 1723 1274.89 1730.64 z"/>
<path transform="translate(0,0)" fill="rgba(76, 127, 180, 1)" d="M 94.3498 520.789 C 93.3501 520.095 92.7469 519.306 91.8877 518.394 C 89.6267 508.723 91.2534 501.951 89.592 494.291 C 82.6484 462.277 80.2717 421.143 87.7755 389.395 L 87.6857 390.34 L 87.9462 390.244 C 88.632 386.152 88.4613 385.319 91.0617 382.351 C 91.4675 397.93 87.2516 415.705 87.9624 429.763 C 89.4062 458.32 91.0596 492.655 94.3498 520.789 z"/>
<path transform="translate(0,0)" fill="rgba(112, 155, 200, 1)" d="M 1801.18 1494.58 C 1802.52 1501.3 1797.54 1507.37 1793.33 1513.06 C 1781.34 1529.26 1723.09 1613.4 1709.06 1616.69 C 1716.1 1606.99 1723.92 1598.72 1731.01 1589.43 C 1755.05 1557.9 1780.34 1528.44 1801.18 1494.58 z"/>
<path transform="translate(0,0)" fill="rgba(182, 208, 226, 1)" d="M 164.641 363.201 C 168.082 365.567 178.096 390.278 180.668 395.565 C 194.863 424.737 208.441 454.315 223.868 482.873 C 227.561 489.711 240.612 512.216 245.395 518.048 L 245.588 522.637 C 224.028 492.676 212.783 468.978 196.66 436.194 C 184.788 412.055 172.376 389.354 164.641 363.201 z"/>
<path transform="translate(0,0)" fill="rgba(182, 208, 226, 1)" d="M 314.62 1633.5 L 317.604 1631.94 C 351.484 1665.51 382.679 1700.18 421.433 1727.89 C 425.699 1730.94 432.985 1736.1 436.41 1739.6 C 433.474 1739.45 423.348 1732.33 420.523 1730.35 C 380.621 1702.38 347.756 1668.94 314.62 1633.5 z"/>
<path transform="translate(0,0)" fill="rgba(112, 155, 200, 1)" d="M 333.743 1541.63 C 353.868 1542.28 373.935 1543.94 394.389 1544.7 C 414.382 1545.44 446.656 1542.9 464.69 1544.37 C 462.769 1545.07 453.819 1548.19 452.629 1548.91 C 436.807 1551.91 346.7 1547.44 331.953 1542.52 L 333.743 1541.63 z"/>
<path transform="translate(0,0)" fill="rgba(182, 208, 226, 1)" d="M 356.266 557.637 C 380.926 585.509 418.72 620.962 445.854 648.015 L 443.724 650.829 C 422.854 631.562 402.6 611.637 382.993 591.086 C 376.539 584.379 357.261 566.027 356.266 557.637 z"/>
<path transform="translate(0,0)" fill="rgba(182, 208, 226, 1)" d="M 945.365 893.519 C 985.674 915.717 1030.78 958.16 1052.62 998.61 C 1047.1 995.974 1034.25 974.474 1028.52 968.199 C 1012.88 951.071 996.504 935.313 979.133 919.994 C 973.455 914.986 947.731 897.933 945.365 893.519 z"/>
<path transform="translate(0,0)" fill="rgba(182, 208, 226, 1)" d="M 223.323 825.267 C 246.683 850.429 272.619 873.962 296.484 898.705 C 300.701 903.077 305.233 907.674 309.681 911.779 C 305.502 911.839 300.619 908.068 295.746 903.373 C 271.582 880.094 244.642 854.988 223.578 828.936 C 223.493 827.713 223.408 826.49 223.323 825.267 z"/>
<path transform="translate(0,0)" fill="rgba(112, 155, 200, 1)" d="M 454.039 1443.91 C 441.549 1444.87 353.026 1368.16 344.452 1354.35 L 345.195 1351.78 C 380.343 1385.93 413.876 1415.73 454.039 1443.91 z"/>
<path transform="translate(0,0)" fill="rgba(134, 178, 216, 1)" d="M 1207.41 1059.49 C 1210.34 1053.27 1252.1 1023.86 1259.71 1013 C 1262.88 1008.48 1279.23 996.854 1284.35 990.566 C 1288.09 985.971 1303.18 970.618 1307.97 970.313 C 1292.23 989.159 1281.74 1000.53 1262.48 1016 C 1245.81 1029.4 1226.58 1049.81 1207.41 1059.49 z"/>
<path transform="translate(0,0)" fill="rgba(182, 208, 226, 1)" d="M 1376.39 881.199 C 1376.34 880.848 1376.24 880.5 1376.22 880.144 C 1375.77 873.032 1416.13 823.264 1423.24 815.336 C 1428.66 809.293 1442.33 793.666 1450.7 793.188 C 1439.55 806.038 1428.15 817.015 1417.19 829.344 C 1402.61 845.834 1388.99 863.148 1376.39 881.199 z"/>
<path transform="translate(0,0)" fill="rgba(134, 178, 216, 1)" d="M 379.187 319.833 C 385.019 301.83 454.516 252.316 474.437 239.677 L 475.26 240.396 C 454.463 259.406 426.397 275.582 405.991 296.275 C 399.41 302.949 386.853 315.01 379.187 319.833 z"/>
<path transform="translate(0,0)" fill="rgba(182, 208, 226, 1)" d="M 379.421 676.06 C 396.76 692.054 413.774 708.683 431.4 724.393 C 437.974 730.252 472.876 752.217 474.677 756.552 C 443.084 737.973 412.034 715.348 387.016 688.649 C 383.807 685.225 380.297 681.868 376.987 678.519 L 379.421 676.06 z"/>
<path transform="translate(0,0)" fill="rgba(76, 127, 180, 1)" d="M 1944.74 936.551 L 1945.94 936.984 C 1946.83 942.091 1945.38 953.732 1945.25 959.956 C 1944.66 988.524 1946.24 1017.07 1942.42 1045.42 C 1942.17 1040 1941.94 1029.08 1941.01 1023.96 C 1939.93 1010.19 1940.5 948.271 1944.74 936.551 z"/>
<path transform="translate(0,0)" fill="rgba(112, 155, 200, 1)" d="M 1043.87 1154.98 C 1054.8 1166.09 1048.34 1226.78 1047.18 1243.36 C 1046.79 1239.66 1046.09 1230.23 1045.18 1227.41 C 1044.18 1203.11 1045.28 1179.96 1043.87 1154.98 z"/>
<path transform="translate(0,0)" fill="rgba(134, 178, 216, 1)" d="M 1630.04 984.715 C 1641.04 965.488 1672.42 936.173 1691.63 925.472 C 1690.57 931.541 1662.92 951.335 1656.87 958.835 C 1653.28 963.299 1634.03 984.374 1630.04 984.715 z"/>
<path transform="translate(0,0)" fill="rgba(76, 127, 180, 1)" d="M 90.4998 860.8 L 88.5638 860.266 C 85.4294 854.196 82.0918 826.013 84.6893 819.952 C 89.5732 808.557 87.1692 772.348 98.5 768.118 C 89.7135 794.305 85.7616 833.379 90.4998 860.8 z"/>
<path transform="translate(0,0)" fill="rgba(234, 237, 240, 1)" d="M 458.214 1527.65 C 463.303 1527.2 483.466 1540.65 486.512 1545.58 L 486.452 1547.51 C 482.437 1550.9 459.607 1549.08 452.629 1548.91 C 453.819 1548.19 462.769 1545.07 464.69 1544.37 C 465.78 1534.63 465.589 1534.03 458.214 1527.65 z"/>
<path transform="translate(0,0)" fill="rgba(112, 155, 200, 1)" d="M 245.395 518.048 C 262.094 540.45 294.101 583.164 312.342 606.935 C 312.283 607.666 312.223 608.397 312.164 609.128 C 303.824 603.37 254.188 534.536 245.588 522.637 L 245.395 518.048 z"/>
<path transform="translate(0,0)" fill="rgba(76, 127, 180, 1)" d="M 96.1272 303.52 C 94.7545 303.517 95.6168 303.591 93.5887 302.975 C 95.8897 297.669 97.7358 276.879 98.7586 270.036 C 100.132 260.85 110.202 220.22 116.922 215.247 C 116.022 220.799 114.091 226.068 112.598 231.475 C 106.039 255.227 101.049 279.387 96.1272 303.52 z"/>
<path transform="translate(0,0)" fill="rgba(182, 208, 226, 1)" d="M 1698.52 777.345 C 1710.16 779.413 1763.71 824.658 1764.81 835.009 C 1749.52 825.706 1737.8 810.574 1724.59 798.407 C 1715.93 790.429 1707.87 784.401 1698.52 777.345 z"/>
<path transform="translate(0,0)" fill="rgba(234, 237, 240, 1)" d="M 77.5847 1038.3 C 91.7029 1050.71 90.3661 1059.18 97.4791 1066.67 L 94.6193 1067.05 C 91.6648 1066.05 91.4187 1066.27 88.2974 1066.08 C 85.5358 1065.63 79.637 1063.21 76.7638 1062.13 C 75.4634 1052.56 76.0654 1047.88 77.5847 1038.3 z"/>
<path transform="translate(0,0)" fill="rgba(182, 208, 226, 1)" d="M 289.822 1183.88 C 276.242 1182.77 219.696 1130.17 211.073 1116.63 L 213.303 1115.31 C 235.803 1138.76 262.799 1165.95 289.822 1183.88 z"/>
<path transform="translate(0,0)" fill="rgba(134, 178, 216, 1)" d="M 973.544 1006.36 C 988.308 1016.23 1032.59 1080.77 1027.49 1096.3 C 1021.08 1077.64 1007.1 1052.75 995.768 1036.69 C 988.892 1026.94 980.649 1017.21 974.104 1007.22 L 973.544 1006.36 z"/>
<path transform="translate(0,0)" fill="rgba(76, 127, 180, 1)" d="M 958.156 1423.75 C 967.38 1409.81 980.02 1397.38 989.834 1383.44 C 996.109 1374.53 1001.98 1361.98 1008.15 1353.8 C 1008.84 1366.87 971.776 1418.5 958.156 1423.75 z"/>
<path transform="translate(0,0)" fill="rgba(112, 155, 200, 1)" d="M 1818.27 788.665 C 1836.04 805.607 1855.22 818.907 1874.38 834.117 C 1877.71 836.762 1892.07 846.377 1893.92 848.449 L 1892.58 849.296 C 1881.31 844.704 1824.88 799.955 1814.89 790.032 L 1818.27 788.665 z"/>
<path transform="translate(0,0)" fill="rgba(134, 178, 216, 1)" d="M 325.805 1429.94 C 328.338 1430.09 356.834 1455.87 361.672 1459.87 C 375.057 1470.95 393.051 1481.53 405.635 1492.97 L 405.974 1494.18 C 398.912 1492.37 352.741 1456.54 344.363 1449.5 C 340.059 1445.88 329.502 1435.01 325.805 1429.94 z"/>
<path transform="translate(0,0)" fill="rgba(112, 155, 200, 1)" d="M 1687.68 1029.2 C 1687.01 1028.26 1687.39 1028.91 1686.91 1027.07 C 1694.03 1016.52 1701.44 1005.94 1711.07 996.751 C 1717.22 990.883 1730.27 981.616 1738.05 977.128 C 1739.32 977.159 1740.59 977.189 1741.86 977.22 C 1729.45 986.944 1718.11 995.623 1706.78 1006.8 C 1702.68 1010.85 1690.75 1026.64 1687.68 1029.2 z"/>
<path transform="translate(0,0)" fill="rgba(112, 155, 200, 1)" d="M 97.4791 1066.67 C 103.263 1072.95 107.22 1083.59 111.837 1091 C 118.755 1102.1 126.56 1112.72 133.631 1123.66 C 137.676 1129.91 148.074 1142.32 147.939 1149.06 C 138.676 1135.34 128.32 1121.6 119.402 1107.8 C 110.935 1094.7 102.915 1080.46 94.6193 1067.05 L 97.4791 1066.67 z"/>
<path transform="translate(0,0)" fill="rgba(182, 208, 226, 1)" d="M 1440.43 1560.99 C 1440.52 1560.35 1440.92 1557.59 1441.36 1557.16 C 1449.34 1549.37 1475.18 1504.05 1481.51 1501.24 C 1475.18 1514.63 1451 1550.98 1440.43 1560.99 z"/>
<path transform="translate(0,0)" fill="rgba(182, 208, 226, 1)" d="M 326.324 369.879 L 327.33 372.203 C 324.256 376.371 292.915 412.081 289.669 414.394 L 288.97 413.864 C 292.254 404.656 317.741 377.935 326.324 369.879 z"/>
<path transform="translate(0,0)" fill="rgba(182, 208, 226, 1)" d="M 1583.19 265.371 C 1584.39 265.448 1585.59 265.525 1586.78 265.601 C 1595.09 271.888 1627.73 294.23 1629.67 302.838 C 1618.77 296.742 1595.26 274.994 1583.19 265.371 z"/>
<path transform="translate(0,0)" fill="rgba(112, 155, 200, 1)" d="M 1740.26 725.249 C 1753.06 731.847 1772.8 747.205 1783.79 757.117 L 1784.41 762.164 C 1782.63 761.03 1773.25 752.999 1771.6 751.339 C 1766.31 746.003 1742.18 730.541 1740.26 725.249 z"/>
<path transform="translate(0,0)" fill="rgba(76, 127, 180, 1)" d="M 912.975 1464.64 C 924.523 1454.07 936.886 1444.5 948.674 1433.89 C 948.109 1435.61 946.339 1440.66 945.239 1441.73 C 940.118 1446.71 920.555 1464.77 915.029 1466.34 C 914.429 1465.87 913.412 1465.17 912.975 1464.64 z"/>
<path transform="translate(0,0)" fill="rgba(182, 208, 226, 1)" d="M 1783.79 757.117 C 1798.14 768.041 1805.8 775.725 1818.27 788.665 L 1814.89 790.032 C 1807.98 783.514 1791.09 766.665 1784.41 762.164 L 1783.79 757.117 z"/>
<path transform="translate(0,0)" fill="rgba(112, 155, 200, 1)" d="M 445.854 648.015 C 458.074 659.43 470.48 668.736 482.621 679.745 L 479.545 680.382 C 475.863 678.788 447.101 654.433 443.724 650.829 L 445.854 648.015 z"/>
<path transform="translate(0,0)" fill="rgba(182, 208, 226, 1)" d="M 320.263 618.196 C 326.143 618.914 351.505 646.195 351.593 652.628 C 339.613 641.798 329.141 631.726 320.263 618.196 z"/>
<path transform="translate(0,0)" fill="rgba(76, 127, 180, 1)" d="M 493.227 1015.31 C 504.672 1027.61 505.845 1045.12 495.419 1058.35 C 493.227 1052.14 499.623 1043.13 498.847 1034.88 C 498.178 1027.77 492.336 1021.06 493.227 1015.31 z"/>
<path transform="translate(0,0)" fill="rgba(182, 208, 226, 1)" d="M 152.516 1030.96 L 150.48 1030.44 C 144.729 1023.76 128.538 994.169 130.551 986.707 C 137.718 1000.85 145.974 1016.59 152.516 1030.96 z"/>
<path transform="translate(0,0)" fill="rgba(76, 127, 180, 1)" d="M 1134.01 1737.49 C 1144.85 1731.18 1153.47 1725.96 1164.74 1720.02 C 1160.76 1728.43 1144.38 1738.02 1135.29 1738.32 L 1134.01 1737.49 z"/>
<path transform="translate(0,0)" fill="rgba(76, 127, 180, 1)" d="M 107.608 773.858 C 112.95 778.066 131.93 807.321 131.336 813.871 C 124.955 805.134 110.744 784.183 107.608 773.858 z"/>
<path transform="translate(0,0)" fill="rgba(112, 155, 200, 1)" d="M 355.611 556.747 C 349.112 555.521 329.261 528.995 329.287 522.933 C 334.276 529 352.51 550.59 355.611 556.747 z"/>
<path transform="translate(0,0)" fill="rgba(76, 127, 180, 1)" d="M 1522.71 1271.84 C 1523.58 1278.86 1514.95 1296.7 1510.41 1302.51 L 1509.26 1304.05 L 1508.14 1303.1 C 1509.44 1296.52 1519.21 1278.52 1522.71 1271.84 z"/>
<path transform="translate(0,0)" fill="rgba(112, 155, 200, 1)" d="M 356.544 657.429 C 362.122 657.879 376.364 671.549 379.421 676.06 L 376.987 678.519 C 370.057 671.924 363.163 664.401 356.544 657.429 z"/>
<path transform="translate(0,0)" fill="rgba(182, 208, 226, 1)" d="M 754.717 1903.63 C 750.129 1902.3 747.249 1900.52 743.486 1897.74 L 743.556 1896.62 C 747.798 1896.18 761.98 1898.17 767.465 1898.62 C 764.167 1899.8 756.728 1901.66 754.717 1903.63 z"/>
<path transform="translate(0,0)" fill="rgba(76, 127, 180, 1)" d="M 326.324 369.879 C 327.055 364.464 339.416 352.226 345.669 351.103 C 339.575 357.969 333.105 365.111 327.33 372.203 L 326.324 369.879 z"/>
<path transform="translate(0,0)" fill="rgba(112, 155, 200, 1)" d="M 306.396 1621.26 C 310.624 1625.02 313.649 1627.83 317.604 1631.94 L 314.62 1633.5 C 310.142 1630.83 307.955 1625.95 306.396 1621.26 z"/>
</g></svg></svg></svg>